<svg width="146" height="31" viewBox="0 0 146 31" fill="none" xmlns="http://www.w3.org/2000/svg">
<path d="M25.7031 5.67969C25.651 5.8099 25.599 5.95312 25.5469 6.10938C25.5208 6.26562 25.4818 6.40885 25.4297 6.53906C25.3776 6.59115 25.2995 6.64323 25.1953 6.69531C25.1172 6.72135 25.0651 6.78646 25.0391 6.89062C24.8828 6.86458 24.7786 6.86458 24.7266 6.89062C24.7005 6.91667 24.6354 6.99479 24.5312 7.125C24.3229 7.20312 24.1276 7.25521 23.9453 7.28125C23.7891 7.28125 23.6198 7.3724 23.4375 7.55469C23.1771 7.55469 22.9818 7.60677 22.8516 7.71094C22.6432 7.73698 22.487 7.75 22.3828 7.75C22.3047 7.75 22.2396 7.78906 22.1875 7.86719C21.9531 7.78906 21.7318 7.8151 21.5234 7.94531C21.3151 8.07552 21.1068 8.11458 20.8984 8.0625C20.5859 8.27083 20.2865 8.40104 20 8.45312C19.7396 8.47917 19.5443 8.51823 19.4141 8.57031C19.2578 8.67448 19.1276 8.73958 19.0234 8.76562C18.6589 8.79167 18.4245 8.84375 18.3203 8.92188C18.2161 9 18.099 9.07812 17.9688 9.15625C17.9167 9.15625 17.7865 9.16927 17.5781 9.19531C17.3698 9.22135 17.2396 9.23438 17.1875 9.23438C17.0833 9.20833 16.9922 9.18229 16.9141 9.15625C16.8359 9.10417 16.7448 9.0651 16.6406 9.03906C16.5104 8.77865 16.3281 8.60938 16.0938 8.53125C16.1198 8.47917 16.1068 8.41406 16.0547 8.33594C16.0026 8.25781 16.0156 8.19271 16.0938 8.14062C16.0156 7.80208 16.0286 7.60677 16.1328 7.55469C16.237 7.5026 16.3151 7.41146 16.3672 7.28125C16.4974 7.28125 16.5885 7.24219 16.6406 7.16406C16.7188 7.08594 16.8099 7.00781 16.9141 6.92969C17.2526 6.92969 17.5781 6.90365 17.8906 6.85156C18.2292 6.77344 18.4635 6.65625 18.5938 6.5C18.776 6.57812 18.9193 6.59115 19.0234 6.53906C19.1276 6.48698 19.1797 6.39583 19.1797 6.26562C19.2057 6.13542 19.1927 5.99219 19.1406 5.83594C19.1146 5.67969 19.0625 5.54948 18.9844 5.44531C19.0365 5.34115 19.0365 5.26302 18.9844 5.21094C18.9323 5.13281 18.9193 5.02865 18.9453 4.89844C18.737 4.6901 18.5677 4.50781 18.4375 4.35156C18.3073 4.16927 18.2161 4.03906 18.1641 3.96094C18.138 3.90885 18.0469 3.86979 17.8906 3.84375C17.7344 3.79167 17.6432 3.64844 17.6172 3.41406C17.5391 3.38802 17.4609 3.38802 17.3828 3.41406C17.3307 3.41406 17.2656 3.40104 17.1875 3.375C17.1094 3.27083 16.9922 3.14062 16.8359 2.98438C16.7057 3.03646 16.5755 3.02344 16.4453 2.94531C16.3411 2.84115 16.224 2.78906 16.0938 2.78906C15.8333 2.8151 15.6641 2.8151 15.5859 2.78906C15.5339 2.73698 15.4688 2.71094 15.3906 2.71094C15.2865 2.71094 15.1823 2.72396 15.0781 2.75C15 2.77604 14.9219 2.77604 14.8438 2.75C14.7396 2.75 14.6484 2.73698 14.5703 2.71094C14.4922 2.65885 14.4141 2.60677 14.3359 2.55469C14.0755 2.6849 13.9193 2.75 13.8672 2.75C13.8151 2.72396 13.776 2.73698 13.75 2.78906C13.5417 2.73698 13.4115 2.73698 13.3594 2.78906C13.3073 2.84115 13.2552 2.88021 13.2031 2.90625C13.125 2.93229 13.0339 2.93229 12.9297 2.90625C12.8516 2.88021 12.7734 2.88021 12.6953 2.90625C12.5651 2.93229 12.4609 2.97135 12.3828 3.02344C12.3047 3.07552 12.2135 3.1276 12.1094 3.17969C11.849 3.15365 11.5755 3.20573 11.2891 3.33594C11.0026 3.46615 10.8594 3.57031 10.8594 3.64844C10.7552 3.59635 10.6771 3.60938 10.625 3.6875C10.5729 3.73958 10.5208 3.73958 10.4688 3.6875C10.2083 3.84375 10.0781 3.94792 10.0781 4C10.0781 4.02604 10.0521 4.0651 10 4.11719C9.66146 4.22135 9.41406 4.32552 9.25781 4.42969C9.10156 4.50781 8.98438 4.61198 8.90625 4.74219C8.56771 4.92448 8.33333 5.08073 8.20312 5.21094C8.07292 5.34115 7.92969 5.43229 7.77344 5.48438C7.59115 5.74479 7.44792 5.875 7.34375 5.875C7.29167 5.92708 7.23958 5.99219 7.1875 6.07031C7.16146 6.1224 7.14844 6.1875 7.14844 6.26562C6.86198 6.23958 6.67969 6.33073 6.60156 6.53906C6.52344 6.7474 6.38021 6.8776 6.17188 6.92969C6.09375 7.1901 5.9375 7.39844 5.70312 7.55469C5.65104 7.76302 5.57292 7.94531 5.46875 8.10156C5.36458 8.23177 5.28646 8.38802 5.23438 8.57031C5.02604 8.9349 4.85677 9.19531 4.72656 9.35156C4.6224 9.50781 4.54427 9.6901 4.49219 9.89844C4.28385 9.97656 4.15365 10.1328 4.10156 10.3672C4.07552 10.5755 3.9974 10.7578 3.86719 10.9141C3.78906 11.3047 3.69792 11.6042 3.59375 11.8125C3.48958 12.0208 3.48958 12.2161 3.59375 12.3984C3.54167 12.5286 3.46354 12.6458 3.35938 12.75C3.28125 12.8281 3.28125 12.9323 3.35938 13.0625C3.25521 13.2188 3.17708 13.349 3.125 13.4531C3.09896 13.5312 3.11198 13.5964 3.16406 13.6484C3.13802 13.7005 3.09896 13.7656 3.04688 13.8438C2.99479 13.8958 2.96875 13.9479 2.96875 14C2.96875 14.1302 2.96875 14.2604 2.96875 14.3906C2.96875 14.4948 2.92969 14.612 2.85156 14.7422C2.90365 15.0026 2.89062 15.263 2.8125 15.5234C2.76042 15.7839 2.77344 16.0312 2.85156 16.2656C2.77344 16.3438 2.72135 16.5521 2.69531 16.8906C2.69531 17.2031 2.73438 17.3854 2.8125 17.4375C2.8125 17.8281 2.79948 18.1406 2.77344 18.375C2.77344 18.6094 2.82552 18.8307 2.92969 19.0391C2.90365 19.3255 2.90365 19.4688 2.92969 19.4688C2.98177 19.4688 3.00781 19.4948 3.00781 19.5469C3.0599 19.7031 3.07292 19.8073 3.04688 19.8594C3.02083 19.9115 3.11198 20.0417 3.32031 20.25C3.32031 20.5104 3.34635 20.7188 3.39844 20.875C3.45052 21.0312 3.52865 21.1354 3.63281 21.1875C3.63281 21.3177 3.65885 21.4349 3.71094 21.5391C3.78906 21.6432 3.86719 21.7604 3.94531 21.8906C3.9974 22.151 4.11458 22.4505 4.29688 22.7891C4.47917 23.1276 4.57031 23.362 4.57031 23.4922C4.64844 23.5443 4.71354 23.6224 4.76562 23.7266C4.81771 23.8307 4.89583 23.9089 5 23.9609C5.05208 24.1432 5.14323 24.2995 5.27344 24.4297C5.42969 24.5339 5.53385 24.5729 5.58594 24.5469C5.5599 24.6771 5.59896 24.7552 5.70312 24.7812C5.80729 24.8073 5.8724 24.8854 5.89844 25.0156C6.0026 25.0156 6.15885 25.0677 6.36719 25.1719C6.47135 25.5625 6.77083 25.7578 7.26562 25.7578C7.52604 25.9141 7.78646 26.0703 8.04688 26.2266C8.33333 26.3828 8.61979 26.474 8.90625 26.5C9.08854 26.5521 9.20573 26.6042 9.25781 26.6562C9.33594 26.6823 9.40104 26.6953 9.45312 26.6953C9.60938 26.6693 9.71354 26.6823 9.76562 26.7344C9.81771 26.7865 9.98698 26.7865 10.2734 26.7344C10.5339 26.8385 10.7031 26.9036 10.7812 26.9297C10.8594 26.9557 11.0417 26.9818 11.3281 27.0078C11.4062 27.0078 11.4714 27.0208 11.5234 27.0469C11.6016 27.0729 11.6797 27.0859 11.7578 27.0859C11.8359 27.112 11.9141 27.112 11.9922 27.0859C12.0703 27.0599 12.1484 27.0469 12.2266 27.0469C12.2786 27.0729 12.3438 27.112 12.4219 27.1641C12.5 27.1901 12.5651 27.2031 12.6172 27.2031H13.4766C13.5547 27.2031 13.6328 27.2031 13.7109 27.2031C13.8151 27.1771 13.8932 27.1901 13.9453 27.2422C14.0234 27.2161 14.0885 27.1901 14.1406 27.1641C14.2188 27.138 14.2969 27.138 14.375 27.1641C14.5312 27.0078 14.6484 26.9427 14.7266 26.9688C14.8307 26.9948 14.8698 26.9688 14.8438 26.8906C15.1562 26.9167 15.3516 26.8906 15.4297 26.8125C15.5339 26.7344 15.6771 26.7083 15.8594 26.7344C16.0938 26.7083 16.3932 26.6432 16.7578 26.5391C17.1224 26.4089 17.3438 26.2786 17.4219 26.1484C17.5521 26.1484 17.6693 26.1094 17.7734 26.0312C17.8776 25.9531 17.9948 25.888 18.125 25.8359C18.4375 25.7318 18.6198 25.6667 18.6719 25.6406C18.724 25.5885 18.7891 25.5495 18.8672 25.5234C19.3099 25.2891 19.5833 25.0417 19.6875 24.7812C20.0521 24.6771 20.2604 24.5729 20.3125 24.4688C20.3646 24.3385 20.4297 24.2344 20.5078 24.1562C20.7422 24.1042 20.9115 23.987 21.0156 23.8047C21.1198 23.5964 21.276 23.4401 21.4844 23.3359C21.5365 23.2839 21.5625 23.2188 21.5625 23.1406C21.5885 23.0625 21.6406 23.0234 21.7188 23.0234C21.7188 22.8932 21.7448 22.8021 21.7969 22.75C21.875 22.6979 21.9271 22.6068 21.9531 22.4766C22.0833 22.4245 22.2135 22.3984 22.3438 22.3984C22.474 22.3724 22.5911 22.3203 22.6953 22.2422C22.7995 22.2422 22.8646 22.2682 22.8906 22.3203C22.9427 22.3724 22.9948 22.4245 23.0469 22.4766C23.125 22.5026 23.1771 22.5417 23.2031 22.5938C23.2552 22.6458 23.3203 22.6849 23.3984 22.7109C23.3464 22.8151 23.3464 22.9062 23.3984 22.9844C23.4766 23.0625 23.5417 23.1406 23.5938 23.2188C23.5938 23.349 23.5807 23.4792 23.5547 23.6094C23.5286 23.7135 23.5417 23.8307 23.5938 23.9609C23.4635 24.1432 23.3724 24.2604 23.3203 24.3125C23.2682 24.3646 23.2161 24.4167 23.1641 24.4688C23.112 24.5208 23.0729 24.599 23.0469 24.7031C23.0469 24.7812 23.0078 24.8464 22.9297 24.8984C22.8516 25.0547 22.7604 25.2109 22.6562 25.3672C22.5781 25.4974 22.526 25.5885 22.5 25.6406C22.2917 25.7708 22.1484 25.862 22.0703 25.9141C22.0182 25.9401 21.9792 25.9922 21.9531 26.0703C21.8229 26.0703 21.7318 26.1224 21.6797 26.2266C21.6276 26.3307 21.6016 26.3958 21.6016 26.4219C21.4453 26.5 21.3542 26.526 21.3281 26.5C21.3021 26.474 21.263 26.487 21.2109 26.5391C21.1589 26.5911 21.0938 26.6432 21.0156 26.6953C20.9375 26.7474 20.8984 26.8255 20.8984 26.9297C20.7943 26.9297 20.6641 26.9818 20.5078 27.0859C20.3776 27.1641 20.2995 27.2682 20.2734 27.3984C20.1953 27.3984 20.1172 27.4375 20.0391 27.5156C19.9609 27.5677 19.8698 27.5938 19.7656 27.5938C19.6875 27.6458 19.6094 27.724 19.5312 27.8281C19.4792 27.9062 19.4271 27.9844 19.375 28.0625C19.1667 28.0104 19.0104 28.0104 18.9062 28.0625C18.8021 28.0885 18.6849 28.1276 18.5547 28.1797C18.4245 28.2057 18.2943 28.2448 18.1641 28.2969C18.0599 28.3229 17.9948 28.3359 17.9688 28.3359C17.8125 28.388 17.7083 28.4401 17.6562 28.4922C17.6042 28.5443 17.5391 28.5964 17.4609 28.6484C17.3307 28.6745 17.2005 28.6875 17.0703 28.6875C16.9401 28.6615 16.8099 28.6745 16.6797 28.7266C16.4714 28.9349 16.263 29.026 16.0547 29C15.8724 28.974 15.6641 28.987 15.4297 29.0391C15.3516 29.0651 15.2734 29.1042 15.1953 29.1562C15.1172 29.2083 15.0391 29.2474 14.9609 29.2734C14.7005 29.2995 14.5443 29.3255 14.4922 29.3516C14.4401 29.4036 14.388 29.4427 14.3359 29.4688C14.0755 29.4948 13.9193 29.4948 13.8672 29.4688C13.8151 29.4427 13.763 29.4297 13.7109 29.4297C13.4766 29.4297 13.3333 29.4427 13.2812 29.4688C13.2552 29.5208 13.2161 29.5599 13.1641 29.5859C12.9818 29.4297 12.8385 29.3385 12.7344 29.3125C12.6302 29.3125 12.5391 29.3125 12.4609 29.3125C12.3828 29.3385 12.3047 29.3646 12.2266 29.3906C12.1484 29.4427 12.0573 29.4427 11.9531 29.3906C11.6406 29.3646 11.4062 29.3385 11.25 29.3125C11.0938 29.3125 10.9766 29.2995 10.8984 29.2734C10.6901 29.1693 10.5729 29.1172 10.5469 29.1172C10.5208 29.1432 10.4818 29.1562 10.4297 29.1562C10.3255 29.0781 10.1823 29.0521 10 29.0781C9.81771 29.1042 9.64844 29.026 9.49219 28.8438C9.33594 28.8698 9.23177 28.8698 9.17969 28.8438C9.15365 28.7917 9.03646 28.7917 8.82812 28.8438L8.4375 28.6484C8.35938 28.5964 8.28125 28.5833 8.20312 28.6094C8.125 28.6094 8.04688 28.5833 7.96875 28.5312C7.83854 28.4792 7.65625 28.401 7.42188 28.2969C7.21354 28.1927 7.07031 28.1016 6.99219 28.0234C6.73177 27.9974 6.58854 27.9714 6.5625 27.9453C6.5625 27.8932 6.53646 27.8411 6.48438 27.7891C6.25 27.6849 6.06771 27.6589 5.9375 27.7109C5.91146 27.6068 5.82031 27.5547 5.66406 27.5547C5.50781 27.5286 5.40365 27.4245 5.35156 27.2422C5.16927 27.2682 5.02604 27.2161 4.92188 27.0859C4.84375 26.9557 4.70052 26.8906 4.49219 26.8906C4.38802 26.6823 4.24479 26.5 4.0625 26.3438C3.90625 26.1875 3.80208 26.1224 3.75 26.1484C3.72396 26.1224 3.67188 26.0573 3.59375 25.9531C3.51562 25.849 3.42448 25.7448 3.32031 25.6406C3.24219 25.5365 3.16406 25.4453 3.08594 25.3672C3.00781 25.2891 2.95573 25.25 2.92969 25.25C2.98177 25.0938 2.95573 24.9896 2.85156 24.9375C2.77344 24.8854 2.72135 24.7943 2.69531 24.6641C2.51302 24.4297 2.39583 24.2604 2.34375 24.1562C2.31771 24.1042 2.2526 24.026 2.14844 23.9219C2.04427 23.8177 2.03125 23.7656 2.10938 23.7656C2.10938 23.6875 2.05729 23.6094 1.95312 23.5312C1.875 23.4531 1.875 23.375 1.95312 23.2969C1.82292 23.1667 1.73177 23.0104 1.67969 22.8281C1.65365 22.6458 1.57552 22.4766 1.44531 22.3203C1.39323 22.2161 1.34115 22.151 1.28906 22.125C1.23698 22.0729 1.19792 22.0208 1.17188 21.9688C1.14583 21.8906 1.14583 21.7995 1.17188 21.6953C1.19792 21.5911 1.1849 21.5 1.13281 21.4219C0.976562 21.0052 0.846354 20.7578 0.742188 20.6797C0.664062 20.5755 0.651042 20.4844 0.703125 20.4062C0.625 20.3542 0.572917 20.276 0.546875 20.1719C0.520833 20.0417 0.481771 19.9505 0.429688 19.8984C0.429688 19.638 0.403646 19.4557 0.351562 19.3516C0.325521 19.2474 0.273438 19.1302 0.195312 19C0.195312 18.7656 0.208333 18.6354 0.234375 18.6094C0.260417 18.5833 0.286458 18.5443 0.3125 18.4922C0.3125 18.362 0.299479 18.1276 0.273438 17.7891C0.247396 17.4505 0.234375 17.2031 0.234375 17.0469C0.364583 16.6562 0.403646 16.3698 0.351562 16.1875C0.325521 15.9792 0.364583 15.7708 0.46875 15.5625C0.520833 15.1979 0.507812 14.9115 0.429688 14.7031C0.351562 14.4948 0.416667 14.2474 0.625 13.9609C0.572917 13.8307 0.559896 13.7656 0.585938 13.7656C0.611979 13.7396 0.638021 13.6615 0.664062 13.5312C0.716146 13.2969 0.716146 13.1406 0.664062 13.0625C0.690104 12.75 0.716146 12.5547 0.742188 12.4766C0.768229 12.3984 0.794271 12.2943 0.820312 12.1641C1.05469 11.8776 1.15885 11.6823 1.13281 11.5781C1.10677 11.4479 1.11979 11.3177 1.17188 11.1875C1.32812 10.901 1.48438 10.6536 1.64062 10.4453C1.64062 10.3151 1.69271 10.1328 1.79688 9.89844C1.90104 9.63802 2.00521 9.48177 2.10938 9.42969C2.05729 9.09115 2.07031 8.89583 2.14844 8.84375C2.2526 8.79167 2.29167 8.6875 2.26562 8.53125C2.55208 8.32292 2.77344 8.04948 2.92969 7.71094C3.08594 7.3724 3.22917 7.03385 3.35938 6.69531C3.51562 6.51302 3.63281 6.36979 3.71094 6.26562C3.78906 6.13542 3.85417 6.04427 3.90625 5.99219C4.01042 5.83594 4.10156 5.70573 4.17969 5.60156C4.25781 5.4974 4.32292 5.38021 4.375 5.25C4.53125 5.27604 4.60938 5.23698 4.60938 5.13281C4.63542 5.02865 4.6875 4.95052 4.76562 4.89844C4.94792 4.84635 5.10417 4.76823 5.23438 4.66406C5.36458 4.53385 5.50781 4.41667 5.66406 4.3125C5.82031 4.10417 5.91146 3.98698 5.9375 3.96094C5.98958 3.90885 6.04167 3.85677 6.09375 3.80469C6.38021 3.67448 6.54948 3.55729 6.60156 3.45312C6.67969 3.34896 6.77083 3.27083 6.875 3.21875L7.26562 3.14062C7.47396 2.98438 7.60417 2.84115 7.65625 2.71094L8.16406 2.39844C8.26823 2.24219 8.34635 2.16406 8.39844 2.16406C8.45052 2.16406 8.46354 2.125 8.4375 2.04688C8.72396 1.91667 8.94531 1.85156 9.10156 1.85156C9.25781 1.82552 9.40104 1.7474 9.53125 1.61719C9.79167 1.61719 9.9349 1.59115 9.96094 1.53906C10.013 1.48698 10.0651 1.44792 10.1172 1.42188C10.2474 1.36979 10.3516 1.31771 10.4297 1.26562C10.5339 1.21354 10.625 1.1224 10.7031 0.992188C10.7812 0.992188 10.8464 0.979167 10.8984 0.953125C10.9766 0.927083 11.0547 0.927083 11.1328 0.953125C11.2891 0.875 11.4453 0.822917 11.6016 0.796875C11.7578 0.770833 11.9271 0.731771 12.1094 0.679688C12.3698 0.497396 12.6042 0.40625 12.8125 0.40625C13.0208 0.40625 13.2031 0.458333 13.3594 0.5625C13.4375 0.536458 13.5156 0.510417 13.5938 0.484375C13.6979 0.458333 13.7891 0.419271 13.8672 0.367188C13.9453 0.341146 14.0234 0.341146 14.1016 0.367188C14.1797 0.393229 14.2708 0.40625 14.375 0.40625C14.5833 0.380208 14.7005 0.380208 14.7266 0.40625C14.7526 0.432292 14.8438 0.445312 15 0.445312C15.0781 0.445312 15.1432 0.445312 15.1953 0.445312C15.2734 0.419271 15.3385 0.40625 15.3906 0.40625C15.5208 0.40625 15.638 0.432292 15.7422 0.484375C15.8724 0.536458 16.0026 0.549479 16.1328 0.523438C16.3672 0.627604 16.5365 0.692708 16.6406 0.71875C16.7448 0.744792 16.849 0.731771 16.9531 0.679688C16.9531 0.757812 16.9792 0.822917 17.0312 0.875C17.1094 0.901042 17.1615 0.940104 17.1875 0.992188C17.2917 0.966146 17.3828 0.979167 17.4609 1.03125C17.5391 1.05729 17.6302 1.05729 17.7344 1.03125C17.7865 1.10938 17.8516 1.17448 17.9297 1.22656C18.0078 1.27865 18.0729 1.34375 18.125 1.42188C18.2552 1.39583 18.3464 1.42188 18.3984 1.5C18.4766 1.57812 18.5807 1.61719 18.7109 1.61719C18.8151 1.72135 18.9062 1.8125 18.9844 1.89062C19.0885 1.94271 19.2188 1.96875 19.375 1.96875C19.349 2.07292 19.362 2.15104 19.4141 2.20312C19.4661 2.22917 19.4792 2.29427 19.4531 2.39844C19.5312 2.45052 19.6094 2.5026 19.6875 2.55469C19.7656 2.58073 19.8438 2.61979 19.9219 2.67188C20.2083 2.95833 20.4167 3.21875 20.5469 3.45312C20.7031 3.6875 20.8464 3.92188 20.9766 4.15625C20.9766 4.36458 21.0417 4.5599 21.1719 4.74219C21.3021 4.92448 21.3802 5.14583 21.4062 5.40625C21.4844 5.45833 21.5885 5.47135 21.7188 5.44531C21.849 5.39323 21.9401 5.40625 21.9922 5.48438C22.1745 5.30208 22.3047 5.21094 22.3828 5.21094C22.487 5.21094 22.5651 5.15885 22.6172 5.05469C22.7474 5.08073 22.9167 5.06771 23.125 5.01562C23.3333 4.96354 23.5026 4.92448 23.6328 4.89844C23.7109 4.84635 23.7891 4.80729 23.8672 4.78125C23.9714 4.72917 24.0495 4.6901 24.1016 4.66406C24.3099 4.6901 24.5052 4.67708 24.6875 4.625C24.8177 4.70312 24.9089 4.78125 24.9609 4.85938C25.013 4.9375 25.1432 4.96354 25.3516 4.9375C25.3776 5.06771 25.4167 5.19792 25.4688 5.32812C25.5469 5.43229 25.625 5.54948 25.7031 5.67969ZM43.6328 24.8984C43.5286 25.237 43.4245 25.4453 43.3203 25.5234C43.2161 25.5755 43.151 25.6797 43.125 25.8359C42.8646 25.862 42.6432 25.9531 42.4609 26.1094C42.3047 26.2396 42.0182 26.2917 41.6016 26.2656C41.1849 26.1354 40.8464 26.0833 40.5859 26.1094C40.3516 26.1354 40.1042 26.1484 39.8438 26.1484C39.7917 26.1484 39.7266 26.1484 39.6484 26.1484C39.5703 26.1224 39.5052 26.1094 39.4531 26.1094C39.375 26.1094 39.2969 26.1224 39.2188 26.1484C39.1667 26.1745 39.1146 26.1875 39.0625 26.1875C38.9323 26.1354 38.8021 26.0703 38.6719 25.9922C38.5677 25.9141 38.4375 25.862 38.2812 25.8359C38.2812 25.7578 38.2943 25.7057 38.3203 25.6797C38.3464 25.6276 38.3464 25.5495 38.3203 25.4453C38.2943 25.3411 38.2552 25.276 38.2031 25.25C38.151 25.1979 38.112 25.1328 38.0859 25.0547C38.138 24.9766 38.1641 24.8333 38.1641 24.625C38.1901 24.3906 38.1901 24.1562 38.1641 23.9219C38.138 23.6615 38.112 23.4141 38.0859 23.1797C38.0859 22.9453 38.099 22.763 38.125 22.6328C37.9688 22.6849 37.8646 22.776 37.8125 22.9062C37.7604 23.0365 37.6432 23.1146 37.4609 23.1406C37.3828 23.2708 37.2917 23.401 37.1875 23.5312C37.0833 23.6354 36.9792 23.7526 36.875 23.8828C36.5365 24.1172 36.1719 24.3385 35.7812 24.5469C35.4167 24.7292 35.1693 24.9245 35.0391 25.1328C34.6224 25.1849 34.3099 25.3281 34.1016 25.5625C33.763 25.6667 33.5286 25.7318 33.3984 25.7578C33.2943 25.7839 33.2161 25.849 33.1641 25.9531C32.9557 25.901 32.7604 25.9271 32.5781 26.0312C32.4219 26.1094 32.2526 26.1615 32.0703 26.1875C31.9661 26.2135 31.901 26.2526 31.875 26.3047C31.875 26.3568 31.8359 26.3958 31.7578 26.4219C31.6797 26.4219 31.5885 26.4349 31.4844 26.4609C31.3802 26.4609 31.3021 26.487 31.25 26.5391C31.1458 26.487 31.0026 26.4479 30.8203 26.4219C30.638 26.3698 30.4427 26.3307 30.2344 26.3047C30.0521 26.2526 29.8828 26.2135 29.7266 26.1875C29.5703 26.1615 29.4922 26.1484 29.4922 26.1484C29.362 26.0703 29.2578 26.0443 29.1797 26.0703C29.1276 26.0703 29.0755 26.0703 29.0234 26.0703C28.8932 26.0182 28.776 25.9792 28.6719 25.9531C28.5677 25.901 28.4505 25.875 28.3203 25.875C28.2161 25.7448 28.0859 25.6667 27.9297 25.6406C27.7995 25.5885 27.6562 25.5495 27.5 25.5234C27.4219 25.3932 27.3307 25.2891 27.2266 25.2109C27.1484 25.1328 27.0964 25.0156 27.0703 24.8594C26.7578 24.7031 26.5365 24.5469 26.4062 24.3906C26.276 24.2083 26.1849 24.0391 26.1328 23.8828C26.0807 23.7005 26.0286 23.5312 25.9766 23.375C25.9245 23.1927 25.8464 23.0234 25.7422 22.8672C25.6901 22.5286 25.6771 22.2812 25.7031 22.125C25.7552 21.9688 25.7552 21.8255 25.7031 21.6953C25.7031 21.6693 25.7292 21.5651 25.7812 21.3828C25.8594 21.2005 25.9375 21.0052 26.0156 20.7969C26.1198 20.5625 26.2109 20.3542 26.2891 20.1719C26.3932 19.9635 26.4714 19.8464 26.5234 19.8203C26.5234 19.7943 26.5365 19.7292 26.5625 19.625C26.6146 19.5208 26.6667 19.4036 26.7188 19.2734C26.7708 19.1172 26.8099 18.987 26.8359 18.8828C26.888 18.7526 26.9271 18.6745 26.9531 18.6484C27.0052 18.5443 27.0703 18.4531 27.1484 18.375C27.2526 18.2969 27.2917 18.1927 27.2656 18.0625C27.4219 17.9062 27.513 17.763 27.5391 17.6328C27.7214 17.5026 27.8125 17.3594 27.8125 17.2031C28.151 16.9688 28.4375 16.7344 28.6719 16.5C28.9062 16.2656 29.0885 16.1354 29.2188 16.1094C29.4531 15.9271 29.6094 15.8099 29.6875 15.7578C29.7917 15.7057 29.8958 15.6536 30 15.6016C30.0781 15.5755 30.1302 15.5365 30.1562 15.4844C30.1823 15.4062 30.2214 15.3411 30.2734 15.2891C30.5339 15.1849 30.7943 15.0286 31.0547 14.8203C31.2891 14.7682 31.4323 14.7292 31.4844 14.7031C31.5625 14.6771 31.6276 14.638 31.6797 14.5859C32.0964 14.5339 32.4609 14.3776 32.7734 14.1172C32.9557 14.0911 33.151 14.0521 33.3594 14C33.5677 13.9479 33.763 13.8958 33.9453 13.8438C34.1276 13.8438 34.2578 13.8177 34.3359 13.7656C34.4922 13.7917 34.6354 13.7917 34.7656 13.7656C34.9219 13.7135 35.0781 13.6745 35.2344 13.6484C35.4427 13.8047 35.612 13.8828 35.7422 13.8828C36.1328 13.8828 36.4062 13.9219 36.5625 14C36.7188 14.0781 36.901 14.0911 37.1094 14.0391C37.1615 14.0911 37.2266 14.1172 37.3047 14.1172C37.3828 14.1172 37.4479 14.1432 37.5 14.1953C37.526 14.1172 37.513 14 37.4609 13.8438C37.4349 13.6615 37.3828 13.5443 37.3047 13.4922C37.2786 13.4141 37.2656 13.3359 37.2656 13.2578C37.2656 13.1536 37.2526 13.0755 37.2266 13.0234C37.0703 12.7891 36.9661 12.6198 36.9141 12.5156C36.862 12.4115 36.8099 12.3203 36.7578 12.2422C36.6276 12.0599 36.4844 11.9036 36.3281 11.7734C36.1979 11.6172 36.0677 11.4609 35.9375 11.3047C35.5729 11.2526 35.2734 11.1875 35.0391 11.1094C34.8307 11.0312 34.5443 11.0182 34.1797 11.0703C33.9193 10.9922 33.763 10.9661 33.7109 10.9922C33.6589 11.0182 33.6068 11.0312 33.5547 11.0312C33.2682 11.0052 33.099 11.0052 33.0469 11.0312C33.0208 11.0573 32.9818 11.0703 32.9297 11.0703C32.6693 11.0443 32.3958 11.0703 32.1094 11.1484C31.8229 11.2005 31.6797 11.2396 31.6797 11.2656C31.4974 11.2396 31.263 11.2786 30.9766 11.3828C30.6901 11.4609 30.5208 11.526 30.4688 11.5781C30.3646 11.6823 30.2344 11.7474 30.0781 11.7734C29.9479 11.7734 29.8568 11.7995 29.8047 11.8516C29.7005 11.9297 29.5833 12.0339 29.4531 12.1641C29.3229 12.2943 29.2318 12.4245 29.1797 12.5547C29.0495 12.5807 28.9453 12.6328 28.8672 12.7109C28.7891 12.7891 28.6979 12.8542 28.5938 12.9062C28.5677 13.1406 28.4766 13.3229 28.3203 13.4531C28.1901 13.5833 28.112 13.7786 28.0859 14.0391C27.8516 14.0651 27.7604 14.2214 27.8125 14.5078C27.6042 14.4818 27.4609 14.5339 27.3828 14.6641C27.3307 14.7943 27.2135 14.8854 27.0312 14.9375C26.9271 14.9115 26.7708 14.8464 26.5625 14.7422C26.3802 14.612 26.25 14.5078 26.1719 14.4297C26.1198 14.2995 26.0938 14.1562 26.0938 14C26.1198 13.8177 26.1589 13.6224 26.2109 13.4141C26.263 13.2057 26.3151 13.0234 26.3672 12.8672C26.4453 12.6849 26.4974 12.5938 26.5234 12.5938C26.4974 12.5156 26.5104 12.4245 26.5625 12.3203C26.6146 12.1901 26.6797 12.0599 26.7578 11.9297C26.8359 11.7734 26.9141 11.6432 26.9922 11.5391C27.0964 11.4349 27.1875 11.3698 27.2656 11.3438C27.3698 11.2396 27.4609 11.1224 27.5391 10.9922C27.6172 10.862 27.7083 10.7448 27.8125 10.6406C28.0208 10.4844 28.1641 10.3542 28.2422 10.25C28.3984 10.224 28.5026 10.1719 28.5547 10.0938C28.6328 9.98958 28.7109 9.88542 28.7891 9.78125C29.0234 9.72917 29.1536 9.70312 29.1797 9.70312C29.2057 9.67708 29.2318 9.63802 29.2578 9.58594C29.5443 9.53385 29.7526 9.45573 29.8828 9.35156C30.0391 9.2474 30.1953 9.20833 30.3516 9.23438C30.4818 9.10417 30.651 9.02604 30.8594 9C31.0677 8.97396 31.237 8.90885 31.3672 8.80469C31.3672 8.80469 31.4323 8.80469 31.5625 8.80469C31.6927 8.77865 31.8359 8.76562 31.9922 8.76562C32.1484 8.73958 32.2917 8.71354 32.4219 8.6875C32.5521 8.66146 32.6172 8.64844 32.6172 8.64844C32.6953 8.6224 32.7865 8.59635 32.8906 8.57031C32.9948 8.51823 33.0859 8.50521 33.1641 8.53125C33.5286 8.63542 33.776 8.67448 33.9062 8.64844C34.0365 8.6224 34.1797 8.58333 34.3359 8.53125C34.5182 8.60938 34.6224 8.63542 34.6484 8.60938C34.7005 8.58333 34.7526 8.57031 34.8047 8.57031C35.013 8.59635 35.1302 8.6224 35.1562 8.64844C35.1823 8.67448 35.3255 8.67448 35.5859 8.64844C35.638 8.70052 35.7031 8.72656 35.7812 8.72656C35.8854 8.70052 35.9635 8.6875 36.0156 8.6875C36.25 8.84375 36.3802 8.90885 36.4062 8.88281C36.4583 8.83073 36.5104 8.80469 36.5625 8.80469C36.7188 8.96094 36.862 9.0651 36.9922 9.11719C37.1484 9.14323 37.3177 9.20833 37.5 9.3125C37.6823 9.46875 37.7865 9.54688 37.8125 9.54688C37.8646 9.54688 37.9167 9.5599 37.9688 9.58594C38.125 9.89844 38.2682 10.0938 38.3984 10.1719C38.5547 10.25 38.6979 10.3281 38.8281 10.4062C38.8542 10.5104 38.8802 10.6016 38.9062 10.6797C38.9583 10.7578 38.9974 10.862 39.0234 10.9922C39.1016 11.0703 39.1536 11.1354 39.1797 11.1875C39.2057 11.2135 39.2448 11.2917 39.2969 11.4219C39.401 11.6042 39.4792 11.7344 39.5312 11.8125C39.5833 11.8906 39.6354 11.9688 39.6875 12.0469C39.8177 12.3073 39.8958 12.5807 39.9219 12.8672C39.974 13.1276 40.026 13.3359 40.0781 13.4922C40.0521 13.5182 40.0521 13.5833 40.0781 13.6875C40.1042 13.7917 40.1302 13.9089 40.1562 14.0391C40.2083 14.1693 40.2474 14.2995 40.2734 14.4297C40.3255 14.5339 40.3516 14.612 40.3516 14.6641C40.3255 14.8724 40.3516 15.1068 40.4297 15.3672C40.5078 15.6276 40.5599 15.7969 40.5859 15.875C40.4818 16.0052 40.4427 16.1615 40.4688 16.3438C40.5208 16.5 40.5469 16.6562 40.5469 16.8125C40.5469 16.8906 40.5339 16.9688 40.5078 17.0469C40.4818 17.099 40.4688 17.151 40.4688 17.2031C40.4948 17.4115 40.4948 17.5286 40.4688 17.5547C40.4688 17.5807 40.4688 17.6198 40.4688 17.6719C40.5208 17.9583 40.5339 18.1406 40.5078 18.2188C40.5078 18.2969 40.5078 18.362 40.5078 18.4141C40.5078 18.8047 40.5469 19.1953 40.625 19.5859C40.7031 19.9505 40.7552 20.3151 40.7812 20.6797C40.7812 20.862 40.7682 21.0443 40.7422 21.2266C40.7161 21.3828 40.7031 21.5391 40.7031 21.6953C40.6771 22.0599 40.6641 22.4245 40.6641 22.7891C40.6901 23.1536 40.7292 23.5182 40.7812 23.8828C40.8333 23.9089 40.9375 23.9219 41.0938 23.9219C41.276 23.9219 41.3932 23.8958 41.4453 23.8438C41.6797 23.8958 41.8099 23.9089 41.8359 23.8828C41.862 23.8307 41.9271 23.8047 42.0312 23.8047C42.1354 23.7786 42.2005 23.7917 42.2266 23.8438C42.2786 23.8698 42.3568 23.8958 42.4609 23.9219C42.5391 23.9479 42.6172 23.9609 42.6953 23.9609C42.7995 23.9349 42.8906 23.9349 42.9688 23.9609C43.0729 24.013 43.1771 24.1042 43.2812 24.2344C43.4115 24.3646 43.5026 24.4297 43.5547 24.4297C43.6328 24.6901 43.6589 24.8464 43.6328 24.8984ZM38.2031 17.9453C38.2292 17.6589 38.1641 17.3854 38.0078 17.125C37.8516 16.8646 37.6302 16.6823 37.3438 16.5781C37.0052 16.4479 36.6536 16.3047 36.2891 16.1484C35.9245 15.9922 35.5599 15.901 35.1953 15.875C35.1172 15.875 35.0391 15.888 34.9609 15.9141C34.9089 15.9141 34.8438 15.9141 34.7656 15.9141C34.6094 15.9141 34.4531 15.9271 34.2969 15.9531C34.1406 15.9531 33.9844 15.9792 33.8281 16.0312C33.6719 16.0833 33.5156 16.1484 33.3594 16.2266C33.2292 16.2786 33.099 16.3307 32.9688 16.3828C32.8646 16.4349 32.7604 16.4609 32.6562 16.4609C32.5521 16.4609 32.4479 16.487 32.3438 16.5391C32.1875 16.5911 32.0052 16.7083 31.7969 16.8906C31.6146 17.0469 31.3411 17.1901 30.9766 17.3203C30.8464 17.3984 30.7552 17.4375 30.7031 17.4375C30.6771 17.4375 30.638 17.4635 30.5859 17.5156C30.4818 17.5677 30.4036 17.6589 30.3516 17.7891C30.2995 17.8932 30.2083 17.9844 30.0781 18.0625L29.6094 18.2969C29.4792 18.4271 29.349 18.5833 29.2188 18.7656C29.1146 18.9219 28.9974 19.0651 28.8672 19.1953C28.8151 19.2474 28.763 19.2995 28.7109 19.3516C28.6849 19.4036 28.6458 19.4557 28.5938 19.5078C28.5938 19.5339 28.5547 19.6771 28.4766 19.9375C28.3984 20.1719 28.3073 20.4453 28.2031 20.7578C28.125 21.0443 28.0469 21.3177 27.9688 21.5781C27.8906 21.8125 27.8516 21.9297 27.8516 21.9297C27.8516 22.112 27.9036 22.3594 28.0078 22.6719C28.138 22.9583 28.2422 23.1797 28.3203 23.3359C28.3724 23.388 28.4766 23.4661 28.6328 23.5703C28.8151 23.6745 28.9323 23.7526 28.9844 23.8047C29.2969 24.013 29.5312 24.1302 29.6875 24.1562C29.8438 24.1562 29.987 24.2214 30.1172 24.3516C30.1953 24.3255 30.2604 24.3255 30.3125 24.3516C30.3906 24.3776 30.4688 24.3646 30.5469 24.3125C30.599 24.3906 30.651 24.4297 30.7031 24.4297C30.7812 24.4036 30.8594 24.3906 30.9375 24.3906C31.1979 24.3906 31.3932 24.3646 31.5234 24.3125C31.6536 24.2604 31.8099 24.2604 31.9922 24.3125C32.0443 24.2083 32.1224 24.1693 32.2266 24.1953C32.3307 24.1953 32.4219 24.1693 32.5 24.1172C32.5781 24.0651 32.6562 24.026 32.7344 24C32.8125 23.9479 32.8906 23.8958 32.9688 23.8438C33.2031 23.8958 33.4115 23.8438 33.5938 23.6875C33.8021 23.5052 34.0234 23.401 34.2578 23.375C34.4141 23.1667 34.6354 22.9974 34.9219 22.8672C35.2344 22.737 35.4167 22.5417 35.4688 22.2812C35.625 22.2812 35.7161 22.2292 35.7422 22.125C35.7943 21.9948 35.8854 21.9167 36.0156 21.8906C36.1198 21.7344 36.224 21.6432 36.3281 21.6172C36.4583 21.513 36.5625 21.4089 36.6406 21.3047C36.7448 21.2005 36.8229 21.1224 36.875 21.0703C37.0052 20.9922 37.1224 20.9271 37.2266 20.875C37.3307 20.7708 37.4349 20.6927 37.5391 20.6406C37.5651 20.5885 37.6562 20.4844 37.8125 20.3281C37.9688 20.1458 38.0469 20.0156 38.0469 19.9375C38.0469 19.7292 38.0208 19.5208 37.9688 19.3125C37.9167 19.0781 37.9036 18.8698 37.9297 18.6875C37.9297 18.5573 37.9688 18.4401 38.0469 18.3359C38.125 18.2057 38.1771 18.0755 38.2031 17.9453ZM60.7422 10.3281C60.6901 10.4323 60.638 10.5104 60.5859 10.5625C60.5599 10.6146 60.5599 10.7057 60.5859 10.8359C60.4557 10.888 60.3516 10.9792 60.2734 11.1094C60.2214 11.2135 60.1432 11.3177 60.0391 11.4219C60.0651 11.5 60.0651 11.5651 60.0391 11.6172C60.0391 11.6693 60.0391 11.7344 60.0391 11.8125C59.9609 11.8646 59.8828 11.9167 59.8047 11.9688C59.7526 12.0208 59.6745 12.0729 59.5703 12.125C59.3099 12.2031 59.1667 12.2943 59.1406 12.3984C59.1146 12.5026 59.0755 12.5807 59.0234 12.6328C58.9714 12.6849 58.8932 12.737 58.7891 12.7891C58.7109 12.8151 58.6328 12.8542 58.5547 12.9062C58.5026 12.9583 58.4505 13.0234 58.3984 13.1016C58.3464 13.1536 58.2812 13.1797 58.2031 13.1797C58.151 13.3359 58.112 13.4271 58.0859 13.4531C58.0599 13.4792 58.0208 13.5052 57.9688 13.5312C57.9167 13.6354 57.8516 13.7396 57.7734 13.8438C57.6953 13.9479 57.5911 14.026 57.4609 14.0781C57.4349 14.1562 57.4089 14.2344 57.3828 14.3125C57.3568 14.3646 57.3438 14.4427 57.3438 14.5469C57.2656 14.5729 57.1224 14.6641 56.9141 14.8203C56.7057 14.9505 56.5625 15.0417 56.4844 15.0938C56.3542 14.9896 56.1979 14.9635 56.0156 15.0156C55.8333 15.0677 55.6641 15.0547 55.5078 14.9766C55.4557 14.9245 55.3906 14.7812 55.3125 14.5469C55.2344 14.2865 55.1953 14.1302 55.1953 14.0781C55.2214 13.8438 55.2214 13.7135 55.1953 13.6875C55.1693 13.6615 55.1693 13.6224 55.1953 13.5703C55.2214 13.4401 55.2734 13.349 55.3516 13.2969C55.4557 13.2188 55.5729 13.1536 55.7031 13.1016C55.7552 12.9193 55.8203 12.763 55.8984 12.6328C56.0026 12.4766 56.1068 12.3203 56.2109 12.1641C56.1328 12.0599 56.0286 11.9818 55.8984 11.9297C55.7943 11.8516 55.7292 11.7474 55.7031 11.6172C55.5729 11.5651 55.4036 11.4609 55.1953 11.3047C54.9609 11.2266 54.7917 11.1875 54.6875 11.1875C54.5833 11.1875 54.5182 11.1484 54.4922 11.0703C54.2839 10.9922 54.1276 10.9401 54.0234 10.9141C53.9453 10.888 53.8802 10.862 53.8281 10.8359C53.776 10.7578 53.6719 10.7188 53.5156 10.7188C53.3854 10.6927 53.2422 10.6667 53.0859 10.6406C52.9297 10.6146 52.7865 10.6016 52.6562 10.6016C52.526 10.5755 52.4479 10.5625 52.4219 10.5625C52.3177 10.5625 52.2266 10.5755 52.1484 10.6016C52.0703 10.6276 51.9922 10.6406 51.9141 10.6406C51.8099 10.6406 51.7057 10.6406 51.6016 10.6406C51.5234 10.6146 51.4323 10.6146 51.3281 10.6406C51.25 10.6667 51.1719 10.7057 51.0938 10.7578C51.0417 10.7839 50.9635 10.8099 50.8594 10.8359C50.5469 10.888 50.3516 10.9401 50.2734 10.9922C50.2214 11.0182 50.1562 11.0573 50.0781 11.1094C49.7656 11.2917 49.4792 11.4609 49.2188 11.6172C48.9844 11.7734 48.75 11.9948 48.5156 12.2812C48.3073 12.5156 48.151 12.8411 48.0469 13.2578C47.9688 13.6484 47.9036 14 47.8516 14.3125C47.8516 14.4948 47.8516 14.6771 47.8516 14.8594C47.8776 15.0417 47.9427 15.2109 48.0469 15.3672C48.151 15.4974 48.2682 15.6146 48.3984 15.7188C48.5547 15.7969 48.6979 15.901 48.8281 16.0312C48.9323 16.1094 49.0365 16.1875 49.1406 16.2656C49.2708 16.3438 49.401 16.3698 49.5312 16.3438C50.0781 16.5 50.5339 16.6432 50.8984 16.7734C51.2891 16.8776 51.6797 16.9427 52.0703 16.9688C52.2526 17.1771 52.474 17.2812 52.7344 17.2812C53.0208 17.2812 53.2552 17.3073 53.4375 17.3594C53.5156 17.3854 53.5807 17.4245 53.6328 17.4766C53.6849 17.5286 53.75 17.5807 53.8281 17.6328C54.0365 17.737 54.2839 17.8151 54.5703 17.8672C54.8568 17.9193 55.0911 18.0104 55.2734 18.1406C55.4036 18.0625 55.5208 18.0625 55.625 18.1406C55.7552 18.1927 55.8854 18.2057 56.0156 18.1797C56.25 18.3359 56.4062 18.4271 56.4844 18.4531C56.5625 18.4792 56.6406 18.4792 56.7188 18.4531C56.7969 18.6354 56.9271 18.7526 57.1094 18.8047C57.3177 18.8568 57.4479 18.987 57.5 19.1953C57.6042 19.2214 57.6953 19.2604 57.7734 19.3125C57.8776 19.3385 57.9818 19.3646 58.0859 19.3906C58.138 19.4427 58.1901 19.5078 58.2422 19.5859C58.2943 19.638 58.3724 19.6771 58.4766 19.7031C58.5547 19.8854 58.6328 19.9896 58.7109 20.0156C58.7891 20.0417 58.8411 20.0938 58.8672 20.1719C58.9193 20.4844 58.9844 20.6667 59.0625 20.7188C59.1406 20.7448 59.2057 20.7839 59.2578 20.8359C59.362 21.1224 59.401 21.3307 59.375 21.4609C59.375 21.5651 59.4271 21.6432 59.5312 21.6953C59.4792 21.9036 59.4661 22.112 59.4922 22.3203C59.5182 22.5026 59.5182 22.6979 59.4922 22.9062C59.388 23.401 59.3359 23.6875 59.3359 23.7656C59.362 23.8177 59.2708 23.9609 59.0625 24.1953C59.0885 24.3255 59.0625 24.4167 58.9844 24.4688C58.9323 24.5208 58.9193 24.599 58.9453 24.7031C58.7891 24.7552 58.6719 24.8594 58.5938 25.0156C58.5417 25.1458 58.4245 25.237 58.2422 25.2891C58.1901 25.3411 58.151 25.4062 58.125 25.4844C58.099 25.5625 58.0599 25.6276 58.0078 25.6797C57.8516 25.7057 57.6693 25.7969 57.4609 25.9531C57.2526 26.1094 57.0964 26.2396 56.9922 26.3438C56.7578 26.3958 56.5885 26.487 56.4844 26.6172C56.3542 26.5911 56.263 26.6042 56.2109 26.6562C56.1589 26.7083 56.0938 26.7604 56.0156 26.8125C55.9115 26.8125 55.6771 26.8776 55.3125 27.0078C54.974 27.138 54.7917 27.2552 54.7656 27.3594C54.5833 27.3073 54.4661 27.3203 54.4141 27.3984C54.388 27.4505 54.349 27.4766 54.2969 27.4766C53.9583 27.5026 53.724 27.5417 53.5938 27.5938C53.4896 27.6458 53.3724 27.6719 53.2422 27.6719C53.1641 27.6719 53.0208 27.6849 52.8125 27.7109C52.6042 27.7109 52.3828 27.7109 52.1484 27.7109C51.9141 27.7109 51.6927 27.7109 51.4844 27.7109C51.276 27.7109 51.1328 27.7109 51.0547 27.7109C50.9245 27.7109 50.7943 27.6849 50.6641 27.6328C50.5599 27.5547 50.4427 27.5547 50.3125 27.6328C50.2865 27.4766 50.1823 27.3724 50 27.3203C49.8177 27.2682 49.6615 27.2682 49.5312 27.3203C49.2969 27.1901 49.0755 27.0859 48.8672 27.0078C48.6849 26.9297 48.4896 26.8255 48.2812 26.6953C48.0729 26.5651 47.8776 26.4349 47.6953 26.3047C47.513 26.1745 47.3958 26.0703 47.3438 25.9922C47.1354 25.9141 47.0182 25.862 46.9922 25.8359C46.9661 25.8099 46.9531 25.7708 46.9531 25.7188C46.8229 25.6927 46.7057 25.6276 46.6016 25.5234C46.4974 25.3932 46.3932 25.276 46.2891 25.1719C46.2109 25.0677 46.1068 25.0026 45.9766 24.9766C45.8724 24.9505 45.7682 25.0026 45.6641 25.1328C45.5339 25.263 45.4297 25.3932 45.3516 25.5234C45.2734 25.6276 45.2214 25.7578 45.1953 25.9141C44.987 25.9141 44.8438 25.9661 44.7656 26.0703C44.5833 26.0703 44.388 26.1224 44.1797 26.2266C44.0495 26.1745 43.9062 26.1615 43.75 26.1875C43.5938 26.1875 43.4505 26.1615 43.3203 26.1094C43.2943 26.0573 43.2682 25.9922 43.2422 25.9141C43.2161 25.8359 43.1641 25.7708 43.0859 25.7188C43.0339 25.4323 43.0208 25.224 43.0469 25.0938C43.0469 24.9375 43.0599 24.8203 43.0859 24.7422C43.2943 24.5859 43.4375 24.4818 43.5156 24.4297C43.6198 24.3516 43.7109 24.2604 43.7891 24.1562C43.8411 24.1042 43.8802 24.026 43.9062 23.9219C43.9323 23.7917 44.0365 23.7005 44.2188 23.6484C44.5052 23.2839 44.7135 23.0234 44.8438 22.8672C44.974 22.6849 45.0911 22.4896 45.1953 22.2812C45.4557 22.0469 45.6641 21.8516 45.8203 21.6953C45.9245 21.5911 45.9896 21.526 46.0156 21.5C46.0677 21.474 46.1198 21.4349 46.1719 21.3828C46.3802 21.2005 46.5234 21.0833 46.6016 21.0312C46.7057 20.9531 46.7839 20.875 46.8359 20.7969C47.3568 20.8229 47.7344 20.901 47.9688 21.0312C48.2031 21.1354 48.3724 21.3438 48.4766 21.6562C48.4505 21.7604 48.4115 21.8385 48.3594 21.8906C48.3073 21.9167 48.2943 21.9948 48.3203 22.125C48.138 22.3073 48.0469 22.5026 48.0469 22.7109C47.7865 22.9453 47.6432 23.0885 47.6172 23.1406C47.6172 23.1667 47.6172 23.2057 47.6172 23.2578C47.6432 23.2839 47.6823 23.3229 47.7344 23.375C47.8125 23.401 47.8776 23.4531 47.9297 23.5312C47.9557 23.6615 48.0208 23.7917 48.125 23.9219C48.2292 24.026 48.2943 24.1562 48.3203 24.3125C48.4245 24.3385 48.5156 24.3776 48.5938 24.4297C48.6719 24.4818 48.763 24.5339 48.8672 24.5859C48.9714 24.7161 49.0625 24.7943 49.1406 24.8203C49.2188 24.8203 49.2578 24.8594 49.2578 24.9375C49.4922 25.0677 49.6615 25.1589 49.7656 25.2109C49.8698 25.237 49.9479 25.2891 50 25.3672C50.2344 25.3151 50.4167 25.3542 50.5469 25.4844C50.5729 25.4844 50.651 25.4974 50.7812 25.5234C50.9375 25.5234 51.0938 25.5365 51.25 25.5625C51.4323 25.5625 51.6016 25.5755 51.7578 25.6016C51.9401 25.6016 52.0573 25.6016 52.1094 25.6016C52.2135 25.6016 52.3307 25.5755 52.4609 25.5234C52.6172 25.4453 52.7214 25.4323 52.7734 25.4844C52.8776 25.5104 53.0339 25.5104 53.2422 25.4844C53.4505 25.4323 53.5938 25.3802 53.6719 25.3281C54.0365 25.3281 54.2448 25.3151 54.2969 25.2891C54.375 25.263 54.5052 25.237 54.6875 25.2109C55 25.1068 55.2214 24.9896 55.3516 24.8594C55.5078 24.7292 55.651 24.638 55.7812 24.5859C55.8333 24.5339 55.8854 24.4818 55.9375 24.4297C55.9896 24.3776 56.0417 24.3125 56.0938 24.2344C56.25 24.2604 56.3542 24.2214 56.4062 24.1172C56.4844 24.013 56.5885 23.9479 56.7188 23.9219C56.7448 23.7917 56.7708 23.6745 56.7969 23.5703C56.849 23.4401 56.9271 23.349 57.0312 23.2969C57.0052 23.1146 57.0312 22.9583 57.1094 22.8281C57.2135 22.6719 57.2656 22.5156 57.2656 22.3594C57.2656 22.2292 57.2396 22.112 57.1875 22.0078C57.1354 21.8776 57.0833 21.7474 57.0312 21.6172C56.9271 21.4349 56.8359 21.3307 56.7578 21.3047C56.6797 21.2526 56.6536 21.1745 56.6797 21.0703C56.4714 20.888 56.3411 20.7839 56.2891 20.7578C56.263 20.7318 56.237 20.6927 56.2109 20.6406C56.0807 20.6406 55.9896 20.6406 55.9375 20.6406C55.8854 20.6146 55.8464 20.6016 55.8203 20.6016C55.7943 20.5755 55.7682 20.5495 55.7422 20.5234C55.7161 20.4974 55.6641 20.4583 55.5859 20.4062C55.2995 20.3542 55.1432 20.3151 55.1172 20.2891C55.1172 20.263 55.0911 20.237 55.0391 20.2109C54.987 20.1849 54.9219 20.1849 54.8438 20.2109C54.7656 20.2109 54.6875 20.1979 54.6094 20.1719C54.1406 20.0156 53.776 19.9375 53.5156 19.9375C53.2552 19.9115 52.9948 19.8724 52.7344 19.8203C52.526 19.7682 52.3177 19.7031 52.1094 19.625C51.901 19.5208 51.6927 19.4427 51.4844 19.3906C51.4062 19.3646 51.3281 19.3646 51.25 19.3906C51.1979 19.3906 51.1328 19.3776 51.0547 19.3516C50.8464 19.2995 50.638 19.2474 50.4297 19.1953C50.2214 19.1172 50.013 19.1042 49.8047 19.1562C49.6224 19.1042 49.4661 19.0391 49.3359 18.9609C49.2057 18.8828 49.0365 18.8307 48.8281 18.8047C48.8021 18.7005 48.737 18.6484 48.6328 18.6484C48.5286 18.6224 48.4766 18.5443 48.4766 18.4141C48.3203 18.388 48.1771 18.349 48.0469 18.2969C47.9427 18.2188 47.8255 18.1536 47.6953 18.1016C47.5651 17.8932 47.3307 17.737 46.9922 17.6328C46.888 17.5286 46.7969 17.4245 46.7188 17.3203C46.6667 17.2161 46.6016 17.099 46.5234 16.9688C46.4193 16.7344 46.3021 16.5911 46.1719 16.5391C46.1979 16.3307 46.1198 16.1354 45.9375 15.9531C45.7812 15.7448 45.6901 15.5365 45.6641 15.3281C45.638 15.224 45.638 15.1328 45.6641 15.0547C45.6901 14.9766 45.7031 14.8984 45.7031 14.8203C45.625 14.5339 45.5859 14.3516 45.5859 14.2734C45.612 14.1693 45.5859 14.0911 45.5078 14.0391C45.5599 13.9349 45.5729 13.8307 45.5469 13.7266C45.5208 13.6224 45.5339 13.5052 45.5859 13.375C45.612 13.0885 45.625 12.8672 45.625 12.7109C45.651 12.5547 45.7292 12.4505 45.8594 12.3984C45.9115 12.3203 45.9245 12.2422 45.8984 12.1641C45.8984 12.0859 45.9115 12.0078 45.9375 11.9297C46.0677 11.7214 46.1849 11.5911 46.2891 11.5391C46.3932 11.4609 46.4453 11.3438 46.4453 11.1875C46.6536 10.9792 46.7708 10.888 46.7969 10.9141C46.8229 10.9141 46.862 10.888 46.9141 10.8359C47.0703 10.6536 47.2005 10.5365 47.3047 10.4844C47.4349 10.4062 47.5 10.276 47.5 10.0938C47.6302 10.1458 47.7865 10.0807 47.9688 9.89844C48.151 9.71615 48.3073 9.59896 48.4375 9.54688C48.6458 9.41667 48.763 9.32552 48.7891 9.27344C48.9974 9.2474 49.2057 9.20833 49.4141 9.15625C49.6484 9.10417 49.8568 9.01302 50.0391 8.88281C50.1172 8.96094 50.2083 8.97396 50.3125 8.92188C50.4427 8.86979 50.5339 8.79167 50.5859 8.6875C50.8724 8.71354 51.1068 8.6224 51.2891 8.41406C51.4193 8.4401 51.5495 8.4401 51.6797 8.41406C51.8359 8.38802 51.9792 8.38802 52.1094 8.41406C52.5781 8.51823 52.9557 8.54427 53.2422 8.49219C53.5547 8.41406 53.8151 8.46615 54.0234 8.64844C54.3099 8.59635 54.5833 8.63542 54.8438 8.76562C55.1302 8.89583 55.4167 8.9349 55.7031 8.88281C55.7292 9.03906 55.8594 9.11719 56.0938 9.11719C56.1458 9.27344 56.3021 9.3776 56.5625 9.42969C56.5885 9.50781 56.6276 9.57292 56.6797 9.625C56.7318 9.65104 56.7839 9.70312 56.8359 9.78125C57.2266 9.78125 57.5391 9.95052 57.7734 10.2891C57.9036 10.237 58.0469 10.1198 58.2031 9.9375C58.3854 9.75521 58.5026 9.59896 58.5547 9.46875C58.6589 9.46875 58.737 9.45573 58.7891 9.42969C58.8672 9.40365 58.9453 9.36458 59.0234 9.3125C59.2578 9.28646 59.4792 9.29948 59.6875 9.35156C59.9219 9.40365 60.1432 9.46875 60.3516 9.54688C60.5339 9.75521 60.6641 10.0156 60.7422 10.3281ZM80.2734 24.8984C80.1693 25.237 80.0651 25.4453 79.9609 25.5234C79.8568 25.5755 79.7917 25.6797 79.7656 25.8359C79.5052 25.862 79.2839 25.9531 79.1016 26.1094C78.9453 26.2396 78.6589 26.2917 78.2422 26.2656C77.8255 26.1354 77.487 26.0833 77.2266 26.1094C76.9922 26.1354 76.7448 26.1484 76.4844 26.1484C76.4323 26.1484 76.3672 26.1484 76.2891 26.1484C76.2109 26.1224 76.1458 26.1094 76.0938 26.1094C76.0156 26.1094 75.9375 26.1224 75.8594 26.1484C75.8073 26.1745 75.7552 26.1875 75.7031 26.1875C75.5729 26.1354 75.4427 26.0703 75.3125 25.9922C75.2083 25.9141 75.0781 25.862 74.9219 25.8359C74.9219 25.7578 74.9349 25.7057 74.9609 25.6797C74.987 25.6276 74.987 25.5495 74.9609 25.4453C74.9349 25.3411 74.8958 25.276 74.8438 25.25C74.7917 25.1979 74.7526 25.1328 74.7266 25.0547C74.7786 24.9766 74.8047 24.8333 74.8047 24.625C74.8307 24.3906 74.8307 24.1562 74.8047 23.9219C74.7786 23.6615 74.7526 23.4141 74.7266 23.1797C74.7266 22.9453 74.7396 22.763 74.7656 22.6328C74.6094 22.6849 74.5052 22.776 74.4531 22.9062C74.401 23.0365 74.2839 23.1146 74.1016 23.1406C74.0234 23.2708 73.9323 23.401 73.8281 23.5312C73.724 23.6354 73.6198 23.7526 73.5156 23.8828C73.1771 24.1172 72.8125 24.3385 72.4219 24.5469C72.0573 24.7292 71.8099 24.9245 71.6797 25.1328C71.263 25.1849 70.9505 25.3281 70.7422 25.5625C70.4036 25.6667 70.1693 25.7318 70.0391 25.7578C69.9349 25.7839 69.8568 25.849 69.8047 25.9531C69.5964 25.901 69.401 25.9271 69.2188 26.0312C69.0625 26.1094 68.8932 26.1615 68.7109 26.1875C68.6068 26.2135 68.5417 26.2526 68.5156 26.3047C68.5156 26.3568 68.4766 26.3958 68.3984 26.4219C68.3203 26.4219 68.2292 26.4349 68.125 26.4609C68.0208 26.4609 67.9427 26.487 67.8906 26.5391C67.7865 26.487 67.6432 26.4479 67.4609 26.4219C67.2786 26.3698 67.0833 26.3307 66.875 26.3047C66.6927 26.2526 66.5234 26.2135 66.3672 26.1875C66.2109 26.1615 66.1328 26.1484 66.1328 26.1484C66.0026 26.0703 65.8984 26.0443 65.8203 26.0703C65.7682 26.0703 65.7161 26.0703 65.6641 26.0703C65.5339 26.0182 65.4167 25.9792 65.3125 25.9531C65.2083 25.901 65.0911 25.875 64.9609 25.875C64.8568 25.7448 64.7266 25.6667 64.5703 25.6406C64.4401 25.5885 64.2969 25.5495 64.1406 25.5234C64.0625 25.3932 63.9714 25.2891 63.8672 25.2109C63.7891 25.1328 63.737 25.0156 63.7109 24.8594C63.3984 24.7031 63.1771 24.5469 63.0469 24.3906C62.9167 24.2083 62.8255 24.0391 62.7734 23.8828C62.7214 23.7005 62.6693 23.5312 62.6172 23.375C62.5651 23.1927 62.487 23.0234 62.3828 22.8672C62.3307 22.5286 62.3177 22.2812 62.3438 22.125C62.3958 21.9688 62.3958 21.8255 62.3438 21.6953C62.3438 21.6693 62.3698 21.5651 62.4219 21.3828C62.5 21.2005 62.5781 21.0052 62.6562 20.7969C62.7604 20.5625 62.8516 20.3542 62.9297 20.1719C63.0339 19.9635 63.112 19.8464 63.1641 19.8203C63.1641 19.7943 63.1771 19.7292 63.2031 19.625C63.2552 19.5208 63.3073 19.4036 63.3594 19.2734C63.4115 19.1172 63.4505 18.987 63.4766 18.8828C63.5286 18.7526 63.5677 18.6745 63.5938 18.6484C63.6458 18.5443 63.7109 18.4531 63.7891 18.375C63.8932 18.2969 63.9323 18.1927 63.9062 18.0625C64.0625 17.9062 64.1536 17.763 64.1797 17.6328C64.362 17.5026 64.4531 17.3594 64.4531 17.2031C64.7917 16.9688 65.0781 16.7344 65.3125 16.5C65.5469 16.2656 65.7292 16.1354 65.8594 16.1094C66.0938 15.9271 66.25 15.8099 66.3281 15.7578C66.4323 15.7057 66.5365 15.6536 66.6406 15.6016C66.7188 15.5755 66.7708 15.5365 66.7969 15.4844C66.8229 15.4062 66.862 15.3411 66.9141 15.2891C67.1745 15.1849 67.4349 15.0286 67.6953 14.8203C67.9297 14.7682 68.0729 14.7292 68.125 14.7031C68.2031 14.6771 68.2682 14.638 68.3203 14.5859C68.737 14.5339 69.1016 14.3776 69.4141 14.1172C69.5964 14.0911 69.7917 14.0521 70 14C70.2083 13.9479 70.4036 13.8958 70.5859 13.8438C70.7682 13.8438 70.8984 13.8177 70.9766 13.7656C71.1328 13.7917 71.276 13.7917 71.4062 13.7656C71.5625 13.7135 71.7188 13.6745 71.875 13.6484C72.0833 13.8047 72.2526 13.8828 72.3828 13.8828C72.7734 13.8828 73.0469 13.9219 73.2031 14C73.3594 14.0781 73.5417 14.0911 73.75 14.0391C73.8021 14.0911 73.8672 14.1172 73.9453 14.1172C74.0234 14.1172 74.0885 14.1432 74.1406 14.1953C74.1667 14.1172 74.1536 14 74.1016 13.8438C74.0755 13.6615 74.0234 13.5443 73.9453 13.4922C73.9193 13.4141 73.9062 13.3359 73.9062 13.2578C73.9062 13.1536 73.8932 13.0755 73.8672 13.0234C73.7109 12.7891 73.6068 12.6198 73.5547 12.5156C73.5026 12.4115 73.4505 12.3203 73.3984 12.2422C73.2682 12.0599 73.125 11.9036 72.9688 11.7734C72.8385 11.6172 72.7083 11.4609 72.5781 11.3047C72.2135 11.2526 71.9141 11.1875 71.6797 11.1094C71.4714 11.0312 71.1849 11.0182 70.8203 11.0703C70.5599 10.9922 70.4036 10.9661 70.3516 10.9922C70.2995 11.0182 70.2474 11.0312 70.1953 11.0312C69.9089 11.0052 69.7396 11.0052 69.6875 11.0312C69.6615 11.0573 69.6224 11.0703 69.5703 11.0703C69.3099 11.0443 69.0365 11.0703 68.75 11.1484C68.4635 11.2005 68.3203 11.2396 68.3203 11.2656C68.138 11.2396 67.9036 11.2786 67.6172 11.3828C67.3307 11.4609 67.1615 11.526 67.1094 11.5781C67.0052 11.6823 66.875 11.7474 66.7188 11.7734C66.5885 11.7734 66.4974 11.7995 66.4453 11.8516C66.3411 11.9297 66.224 12.0339 66.0938 12.1641C65.9635 12.2943 65.8724 12.4245 65.8203 12.5547C65.6901 12.5807 65.5859 12.6328 65.5078 12.7109C65.4297 12.7891 65.3385 12.8542 65.2344 12.9062C65.2083 13.1406 65.1172 13.3229 64.9609 13.4531C64.8307 13.5833 64.7526 13.7786 64.7266 14.0391C64.4922 14.0651 64.401 14.2214 64.4531 14.5078C64.2448 14.4818 64.1016 14.5339 64.0234 14.6641C63.9714 14.7943 63.8542 14.8854 63.6719 14.9375C63.5677 14.9115 63.4115 14.8464 63.2031 14.7422C63.0208 14.612 62.8906 14.5078 62.8125 14.4297C62.7604 14.2995 62.7344 14.1562 62.7344 14C62.7604 13.8177 62.7995 13.6224 62.8516 13.4141C62.9036 13.2057 62.9557 13.0234 63.0078 12.8672C63.0859 12.6849 63.138 12.5938 63.1641 12.5938C63.138 12.5156 63.151 12.4245 63.2031 12.3203C63.2552 12.1901 63.3203 12.0599 63.3984 11.9297C63.4766 11.7734 63.5547 11.6432 63.6328 11.5391C63.737 11.4349 63.8281 11.3698 63.9062 11.3438C64.0104 11.2396 64.1016 11.1224 64.1797 10.9922C64.2578 10.862 64.349 10.7448 64.4531 10.6406C64.6615 10.4844 64.8047 10.3542 64.8828 10.25C65.0391 10.224 65.1432 10.1719 65.1953 10.0938C65.2734 9.98958 65.3516 9.88542 65.4297 9.78125C65.6641 9.72917 65.7943 9.70312 65.8203 9.70312C65.8464 9.67708 65.8724 9.63802 65.8984 9.58594C66.1849 9.53385 66.3932 9.45573 66.5234 9.35156C66.6797 9.2474 66.8359 9.20833 66.9922 9.23438C67.1224 9.10417 67.2917 9.02604 67.5 9C67.7083 8.97396 67.8776 8.90885 68.0078 8.80469C68.0078 8.80469 68.0729 8.80469 68.2031 8.80469C68.3333 8.77865 68.4766 8.76562 68.6328 8.76562C68.7891 8.73958 68.9323 8.71354 69.0625 8.6875C69.1927 8.66146 69.2578 8.64844 69.2578 8.64844C69.3359 8.6224 69.4271 8.59635 69.5312 8.57031C69.6354 8.51823 69.7266 8.50521 69.8047 8.53125C70.1693 8.63542 70.4167 8.67448 70.5469 8.64844C70.6771 8.6224 70.8203 8.58333 70.9766 8.53125C71.1589 8.60938 71.263 8.63542 71.2891 8.60938C71.3411 8.58333 71.3932 8.57031 71.4453 8.57031C71.6536 8.59635 71.7708 8.6224 71.7969 8.64844C71.8229 8.67448 71.9661 8.67448 72.2266 8.64844C72.2786 8.70052 72.3438 8.72656 72.4219 8.72656C72.526 8.70052 72.6042 8.6875 72.6562 8.6875C72.8906 8.84375 73.0208 8.90885 73.0469 8.88281C73.099 8.83073 73.151 8.80469 73.2031 8.80469C73.3594 8.96094 73.5026 9.0651 73.6328 9.11719C73.7891 9.14323 73.9583 9.20833 74.1406 9.3125C74.3229 9.46875 74.4271 9.54688 74.4531 9.54688C74.5052 9.54688 74.5573 9.5599 74.6094 9.58594C74.7656 9.89844 74.9089 10.0938 75.0391 10.1719C75.1953 10.25 75.3385 10.3281 75.4688 10.4062C75.4948 10.5104 75.5208 10.6016 75.5469 10.6797C75.599 10.7578 75.638 10.862 75.6641 10.9922C75.7422 11.0703 75.7943 11.1354 75.8203 11.1875C75.8464 11.2135 75.8854 11.2917 75.9375 11.4219C76.0417 11.6042 76.1198 11.7344 76.1719 11.8125C76.224 11.8906 76.276 11.9688 76.3281 12.0469C76.4583 12.3073 76.5365 12.5807 76.5625 12.8672C76.6146 13.1276 76.6667 13.3359 76.7188 13.4922C76.6927 13.5182 76.6927 13.5833 76.7188 13.6875C76.7448 13.7917 76.7708 13.9089 76.7969 14.0391C76.849 14.1693 76.888 14.2995 76.9141 14.4297C76.9661 14.5339 76.9922 14.612 76.9922 14.6641C76.9661 14.8724 76.9922 15.1068 77.0703 15.3672C77.1484 15.6276 77.2005 15.7969 77.2266 15.875C77.1224 16.0052 77.0833 16.1615 77.1094 16.3438C77.1615 16.5 77.1875 16.6562 77.1875 16.8125C77.1875 16.8906 77.1745 16.9688 77.1484 17.0469C77.1224 17.099 77.1094 17.151 77.1094 17.2031C77.1354 17.4115 77.1354 17.5286 77.1094 17.5547C77.1094 17.5807 77.1094 17.6198 77.1094 17.6719C77.1615 17.9583 77.1745 18.1406 77.1484 18.2188C77.1484 18.2969 77.1484 18.362 77.1484 18.4141C77.1484 18.8047 77.1875 19.1953 77.2656 19.5859C77.3438 19.9505 77.3958 20.3151 77.4219 20.6797C77.4219 20.862 77.4089 21.0443 77.3828 21.2266C77.3568 21.3828 77.3438 21.5391 77.3438 21.6953C77.3177 22.0599 77.3047 22.4245 77.3047 22.7891C77.3307 23.1536 77.3698 23.5182 77.4219 23.8828C77.474 23.9089 77.5781 23.9219 77.7344 23.9219C77.9167 23.9219 78.0339 23.8958 78.0859 23.8438C78.3203 23.8958 78.4505 23.9089 78.4766 23.8828C78.5026 23.8307 78.5677 23.8047 78.6719 23.8047C78.776 23.7786 78.8411 23.7917 78.8672 23.8438C78.9193 23.8698 78.9974 23.8958 79.1016 23.9219C79.1797 23.9479 79.2578 23.9609 79.3359 23.9609C79.4401 23.9349 79.5312 23.9349 79.6094 23.9609C79.7135 24.013 79.8177 24.1042 79.9219 24.2344C80.0521 24.3646 80.1432 24.4297 80.1953 24.4297C80.2734 24.6901 80.2995 24.8464 80.2734 24.8984ZM74.8438 17.9453C74.8698 17.6589 74.8047 17.3854 74.6484 17.125C74.4922 16.8646 74.2708 16.6823 73.9844 16.5781C73.6458 16.4479 73.2943 16.3047 72.9297 16.1484C72.5651 15.9922 72.2005 15.901 71.8359 15.875C71.7578 15.875 71.6797 15.888 71.6016 15.9141C71.5495 15.9141 71.4844 15.9141 71.4062 15.9141C71.25 15.9141 71.0938 15.9271 70.9375 15.9531C70.7812 15.9531 70.625 15.9792 70.4688 16.0312C70.3125 16.0833 70.1562 16.1484 70 16.2266C69.8698 16.2786 69.7396 16.3307 69.6094 16.3828C69.5052 16.4349 69.401 16.4609 69.2969 16.4609C69.1927 16.4609 69.0885 16.487 68.9844 16.5391C68.8281 16.5911 68.6458 16.7083 68.4375 16.8906C68.2552 17.0469 67.9818 17.1901 67.6172 17.3203C67.487 17.3984 67.3958 17.4375 67.3438 17.4375C67.3177 17.4375 67.2786 17.4635 67.2266 17.5156C67.1224 17.5677 67.0443 17.6589 66.9922 17.7891C66.9401 17.8932 66.849 17.9844 66.7188 18.0625L66.25 18.2969C66.1198 18.4271 65.9896 18.5833 65.8594 18.7656C65.7552 18.9219 65.638 19.0651 65.5078 19.1953C65.4557 19.2474 65.4036 19.2995 65.3516 19.3516C65.3255 19.4036 65.2865 19.4557 65.2344 19.5078C65.2344 19.5339 65.1953 19.6771 65.1172 19.9375C65.0391 20.1719 64.9479 20.4453 64.8438 20.7578C64.7656 21.0443 64.6875 21.3177 64.6094 21.5781C64.5312 21.8125 64.4922 21.9297 64.4922 21.9297C64.4922 22.112 64.5443 22.3594 64.6484 22.6719C64.7786 22.9583 64.8828 23.1797 64.9609 23.3359C65.013 23.388 65.1172 23.4661 65.2734 23.5703C65.4557 23.6745 65.5729 23.7526 65.625 23.8047C65.9375 24.013 66.1719 24.1302 66.3281 24.1562C66.4844 24.1562 66.6276 24.2214 66.7578 24.3516C66.8359 24.3255 66.901 24.3255 66.9531 24.3516C67.0312 24.3776 67.1094 24.3646 67.1875 24.3125C67.2396 24.3906 67.2917 24.4297 67.3438 24.4297C67.4219 24.4036 67.5 24.3906 67.5781 24.3906C67.8385 24.3906 68.0339 24.3646 68.1641 24.3125C68.2943 24.2604 68.4505 24.2604 68.6328 24.3125C68.6849 24.2083 68.763 24.1693 68.8672 24.1953C68.9714 24.1953 69.0625 24.1693 69.1406 24.1172C69.2188 24.0651 69.2969 24.026 69.375 24C69.4531 23.9479 69.5312 23.8958 69.6094 23.8438C69.8438 23.8958 70.0521 23.8438 70.2344 23.6875C70.4427 23.5052 70.6641 23.401 70.8984 23.375C71.0547 23.1667 71.276 22.9974 71.5625 22.8672C71.875 22.737 72.0573 22.5417 72.1094 22.2812C72.2656 22.2812 72.3568 22.2292 72.3828 22.125C72.4349 21.9948 72.526 21.9167 72.6562 21.8906C72.7604 21.7344 72.8646 21.6432 72.9688 21.6172C73.099 21.513 73.2031 21.4089 73.2812 21.3047C73.3854 21.2005 73.4635 21.1224 73.5156 21.0703C73.6458 20.9922 73.763 20.9271 73.8672 20.875C73.9714 20.7708 74.0755 20.6927 74.1797 20.6406C74.2057 20.5885 74.2969 20.4844 74.4531 20.3281C74.6094 20.1458 74.6875 20.0156 74.6875 19.9375C74.6875 19.7292 74.6615 19.5208 74.6094 19.3125C74.5573 19.0781 74.5443 18.8698 74.5703 18.6875C74.5703 18.5573 74.6094 18.4401 74.6875 18.3359C74.7656 18.2057 74.8177 18.0755 74.8438 17.9453ZM115.586 10.4453C115.534 10.7057 115.521 10.901 115.547 11.0312C115.573 11.1615 115.521 11.2526 115.391 11.3047C115.391 11.513 115.352 11.6693 115.273 11.7734C115.247 12.0339 115.221 12.2031 115.195 12.2812C115.195 12.3594 115.156 12.4115 115.078 12.4375C114.922 12.8021 114.831 13.1016 114.805 13.3359C114.805 13.5443 114.727 13.7005 114.57 13.8047C114.44 14.0911 114.336 14.3125 114.258 14.4688C114.206 14.599 114.102 14.6901 113.945 14.7422C113.893 15.0026 113.776 15.1719 113.594 15.25C113.594 15.4583 113.49 15.6667 113.281 15.875C113.099 16.0833 112.956 16.2786 112.852 16.4609C112.721 16.487 112.617 16.5391 112.539 16.6172C112.461 16.6953 112.37 16.7604 112.266 16.8125C112.083 16.9167 111.966 17.0078 111.914 17.0859C111.862 17.1641 111.784 17.2161 111.68 17.2422C111.628 17.1901 111.549 17.2161 111.445 17.3203C111.367 17.3984 111.315 17.4635 111.289 17.5156C111.081 17.5156 110.951 17.5807 110.898 17.7109C110.768 17.6849 110.625 17.724 110.469 17.8281C110.312 17.9062 110.182 17.9323 110.078 17.9062C110.026 17.9323 109.896 18.0104 109.688 18.1406C109.505 18.2448 109.401 18.3229 109.375 18.375C109.219 18.401 109.102 18.4271 109.023 18.4531C108.945 18.4792 108.815 18.4792 108.633 18.4531C108.372 18.6094 108.099 18.7005 107.812 18.7266C107.734 18.7526 107.669 18.7917 107.617 18.8438C107.565 18.8958 107.5 18.9349 107.422 18.9609C107.318 18.9089 107.227 18.9089 107.148 18.9609C107.096 19.013 107.005 19.013 106.875 18.9609C106.745 19.013 106.641 19.0521 106.562 19.0781C106.51 19.1042 106.419 19.1042 106.289 19.0781C106.185 19.0781 106.12 19.1172 106.094 19.1953C106.094 19.2734 106.042 19.2995 105.938 19.2734C105.755 19.2474 105.612 19.2604 105.508 19.3125C105.404 19.3646 105.273 19.4167 105.117 19.4688C105.039 19.4948 104.974 19.4818 104.922 19.4297C104.87 19.3776 104.792 19.3646 104.688 19.3906C104.609 19.3906 104.531 19.4167 104.453 19.4688C104.401 19.4948 104.336 19.5208 104.258 19.5469C104.049 19.599 103.841 19.612 103.633 19.5859C103.451 19.5599 103.255 19.599 103.047 19.7031C102.76 19.5469 102.461 19.5469 102.148 19.7031C101.862 19.8333 101.576 19.8594 101.289 19.7812C101.211 19.8073 101.146 19.8464 101.094 19.8984C101.068 19.9505 101.016 19.9766 100.938 19.9766C100.547 19.8203 100.247 19.7161 100.039 19.6641C99.8307 19.612 99.6224 19.5859 99.4141 19.5859C99.362 19.612 99.2969 19.638 99.2188 19.6641C99.1406 19.6641 99.0755 19.6771 99.0234 19.7031C98.9453 19.7031 98.8802 19.6901 98.8281 19.6641C98.776 19.612 98.7109 19.5729 98.6328 19.5469C98.5026 19.599 98.3724 19.612 98.2422 19.5859C98.112 19.5339 97.9818 19.5078 97.8516 19.5078C97.6432 19.638 97.5651 19.8594 97.6172 20.1719C97.6953 20.4583 97.7344 20.7057 97.7344 20.9141C97.7344 20.9922 97.7214 21.0833 97.6953 21.1875C97.6693 21.2656 97.6562 21.3568 97.6562 21.4609C97.6823 21.5651 97.7083 21.6693 97.7344 21.7734C97.7604 21.8776 97.7734 21.9818 97.7734 22.0859C97.6953 22.3724 97.6562 22.5938 97.6562 22.75C97.6562 22.9062 97.6823 23.0495 97.7344 23.1797C97.6562 23.2839 97.6042 23.4271 97.5781 23.6094C97.5781 23.7917 97.5781 23.987 97.5781 24.1953C97.6042 24.3776 97.6302 24.5599 97.6562 24.7422C97.7083 24.9245 97.7344 25.0938 97.7344 25.25C97.7344 25.3542 97.7214 25.4323 97.6953 25.4844C97.6953 25.5365 97.6823 25.5885 97.6562 25.6406C97.6562 25.6927 97.6693 25.7578 97.6953 25.8359C97.7214 25.9141 97.7083 25.9792 97.6562 26.0312C97.6302 26.3438 97.6302 26.5521 97.6562 26.6562C97.6823 26.7344 97.6562 26.8125 97.5781 26.8906C97.6042 26.9688 97.6432 27.0469 97.6953 27.125C97.7474 27.2031 97.7865 27.2943 97.8125 27.3984C97.8646 27.3984 97.9297 27.3984 98.0078 27.3984C98.112 27.3724 98.1901 27.3333 98.2422 27.2812C98.5026 27.3854 98.6198 27.4375 98.5938 27.4375C98.5938 27.4115 98.724 27.3594 98.9844 27.2812C99.2188 27.2292 99.388 27.2031 99.4922 27.2031C99.5964 27.1771 99.6875 27.1641 99.7656 27.1641C99.9479 27.2161 100.052 27.2422 100.078 27.2422C100.104 27.2161 100.13 27.2031 100.156 27.2031C100.443 27.2292 100.651 27.2292 100.781 27.2031C100.938 27.1771 101.094 27.1901 101.25 27.2422C101.328 27.2943 101.393 27.3464 101.445 27.3984C101.523 27.4505 101.602 27.4766 101.68 27.4766C101.888 27.6849 101.992 27.8281 101.992 27.9062C101.992 27.9844 102.031 28.0365 102.109 28.0625C102.109 28.1146 102.109 28.1797 102.109 28.2578C102.135 28.3359 102.135 28.401 102.109 28.4531C102.031 28.7656 101.966 28.9609 101.914 29.0391C101.628 29.3255 101.341 29.4557 101.055 29.4297C100.794 29.4036 100.521 29.4167 100.234 29.4688C100.104 29.4948 99.974 29.5208 99.8438 29.5469C99.7396 29.599 99.6224 29.599 99.4922 29.5469C99.2318 29.651 99.0625 29.6901 98.9844 29.6641C98.9323 29.638 98.8802 29.638 98.8281 29.6641C98.5938 29.7161 98.4635 29.7292 98.4375 29.7031C98.4375 29.7031 98.4115 29.7031 98.3594 29.7031C98.0729 29.7552 97.8906 29.7552 97.8125 29.7031C97.7344 29.6771 97.6562 29.6641 97.5781 29.6641C97.5521 29.6641 97.5 29.6641 97.4219 29.6641C97.3438 29.6901 97.2396 29.7031 97.1094 29.7031H96.6406C96.4583 29.8073 96.263 29.8464 96.0547 29.8203C95.8724 29.7943 95.7031 29.8464 95.5469 29.9766C95.3125 29.9505 95.1823 29.9505 95.1562 29.9766C95.1302 30.0026 95.0911 30.0156 95.0391 30.0156C94.8568 30.0417 94.6745 30.0286 94.4922 29.9766C94.3359 29.9505 94.1797 29.9896 94.0234 30.0938C93.8932 30.0417 93.724 30.0417 93.5156 30.0938C93.3854 30.0417 93.1641 30.0156 92.8516 30.0156C92.5651 30.0417 92.3307 30.0286 92.1484 29.9766C91.862 29.6641 91.6406 29.4427 91.4844 29.3125C91.4323 29.1042 91.3672 28.9609 91.2891 28.8828C91.2109 28.8047 91.1719 28.6484 91.1719 28.4141C91.3542 28.2057 91.4583 28.0755 91.4844 28.0234C91.5104 27.9714 91.5495 27.9453 91.6016 27.9453C91.7578 27.8932 91.9271 27.8672 92.1094 27.8672C92.3177 27.8411 92.5 27.8021 92.6562 27.75C92.7344 27.8021 92.8776 27.8411 93.0859 27.8672C93.3203 27.8932 93.4766 27.9062 93.5547 27.9062C93.8151 27.8802 93.9714 27.8802 94.0234 27.9062C94.1016 27.9323 94.1797 27.9453 94.2578 27.9453C94.3099 27.9453 94.4531 27.9193 94.6875 27.8672C94.9219 27.7891 95.0651 27.724 95.1172 27.6719C95.1693 27.5417 95.1823 27.3984 95.1562 27.2422C95.1562 27.0599 95.2083 26.9427 95.3125 26.8906C95.3125 26.6302 95.2995 26.487 95.2734 26.4609C95.2474 26.4349 95.2344 26.3958 95.2344 26.3438C95.2083 26.2656 95.2083 26.1875 95.2344 26.1094C95.2865 26.0052 95.3125 25.901 95.3125 25.7969C95.3125 25.7188 95.2865 25.6406 95.2344 25.5625C95.2083 25.4844 95.1823 25.3932 95.1562 25.2891C95.1302 25.2109 95.1302 25.1458 95.1562 25.0938C95.2083 25.0156 95.2474 24.9505 95.2734 24.8984L95.2344 23.4922C95.2083 23.362 95.1823 23.2448 95.1562 23.1406C95.1302 23.0104 95.1172 22.8802 95.1172 22.75C95.1693 22.4115 95.1823 22.2031 95.1562 22.125C95.1302 22.0469 95.1172 21.9688 95.1172 21.8906C95.1172 21.8125 95.1302 21.7474 95.1562 21.6953C95.1823 21.6172 95.2083 21.5521 95.2344 21.5C95.1823 21.2656 95.1562 21.1224 95.1562 21.0703C95.1823 20.9922 95.1562 20.9661 95.0781 20.9922C95.1302 20.7318 95.1562 20.5885 95.1562 20.5625C95.1562 20.5104 95.1302 20.4583 95.0781 20.4062C95.0781 20.3802 95.0781 20.25 95.0781 20.0156C95.1042 19.7812 95.1172 19.638 95.1172 19.5859C95.0911 19.3776 95.0651 19.2734 95.0391 19.2734C95.013 19.2734 95 19.2474 95 19.1953C94.9479 18.8307 94.9479 18.4661 95 18.1016C95.0781 17.737 95.1042 17.3724 95.0781 17.0078C95.0781 16.9297 95.0651 16.8516 95.0391 16.7734C95.0391 16.6953 95.0391 16.6172 95.0391 16.5391C95.0391 16.3307 95.0651 16.1224 95.1172 15.9141C95.1953 15.6797 95.2344 15.4583 95.2344 15.25C95.2344 15.0677 95.2083 14.8984 95.1562 14.7422C95.1042 14.5599 95.0781 14.3776 95.0781 14.1953C95.0781 13.987 95.1042 13.7396 95.1562 13.4531C95.2344 13.1667 95.2083 12.9323 95.0781 12.75C95.1042 12.5677 95.0781 12.4115 95 12.2812C95.0781 11.9948 95.1172 11.8516 95.1172 11.8516C95.1432 11.8255 95.1562 11.7865 95.1562 11.7344C95.1562 11.6823 95.1172 11.5781 95.0391 11.4219C94.987 11.2396 94.9349 11.1484 94.8828 11.1484C94.8307 10.7578 94.8177 10.4583 94.8438 10.25C94.8958 10.0417 94.8568 9.85938 94.7266 9.70312C94.7786 9.57292 94.7786 9.42969 94.7266 9.27344C94.7005 9.09115 94.6745 8.9349 94.6484 8.80469C94.6484 8.57031 94.6615 8.33594 94.6875 8.10156C94.7135 7.84115 94.7266 7.56771 94.7266 7.28125C94.7266 7.02083 94.7266 6.77344 94.7266 6.53906C94.7526 6.30469 94.7526 6.08333 94.7266 5.875C94.7005 5.79688 94.6745 5.71875 94.6484 5.64062C94.6224 5.5625 94.6094 5.48438 94.6094 5.40625C94.5833 5.11979 94.5703 4.8724 94.5703 4.66406C94.5964 4.45573 94.5443 4.20833 94.4141 3.92188C94.4922 3.86979 94.5312 3.79167 94.5312 3.6875C94.5312 3.58333 94.5182 3.50521 94.4922 3.45312C94.2839 3.375 94.0885 3.40104 93.9062 3.53125C93.75 3.66146 93.6458 3.72656 93.5938 3.72656L93.2422 3.96094C92.9557 3.96094 92.7865 3.98698 92.7344 4.03906C92.7083 4.09115 92.6693 4.13021 92.6172 4.15625C92.513 4.13021 92.4089 4.13021 92.3047 4.15625C92.2266 4.18229 92.1354 4.16927 92.0312 4.11719C91.901 4.0651 91.7448 3.9349 91.5625 3.72656C91.3802 3.49219 91.25 3.34896 91.1719 3.29688C91.1979 3.16667 91.1849 3.03646 91.1328 2.90625C91.0547 2.77604 91.0417 2.63281 91.0938 2.47656C91.224 2.42448 91.3542 2.3724 91.4844 2.32031C91.5885 2.24219 91.6667 2.13802 91.7188 2.00781C91.875 1.98177 91.9792 1.96875 92.0312 1.96875C92.1094 1.96875 92.1745 1.96875 92.2266 1.96875C92.2786 1.94271 92.3438 1.91667 92.4219 1.89062C92.5 1.83854 92.6172 1.77344 92.7734 1.69531C92.9818 1.61719 93.151 1.5651 93.2812 1.53906C93.4375 1.48698 93.6068 1.4349 93.7891 1.38281C93.9714 1.33073 94.1276 1.27865 94.2578 1.22656C94.4141 1.17448 94.5052 1.13542 94.5312 1.10938C94.7135 1.13542 94.8958 1.10938 95.0781 1.03125C95.2604 0.953125 95.4297 0.940104 95.5859 0.992188C95.6901 0.940104 95.8203 0.888021 95.9766 0.835938C96.1589 0.783854 96.3021 0.770833 96.4062 0.796875C96.5104 0.692708 96.6406 0.640625 96.7969 0.640625C96.9531 0.640625 97.1094 0.640625 97.2656 0.640625C97.4219 0.640625 97.5781 0.640625 97.7344 0.640625C97.8906 0.614583 98.0208 0.549479 98.125 0.445312C98.3073 0.549479 98.4635 0.575521 98.5938 0.523438C98.75 0.445312 98.9323 0.445312 99.1406 0.523438C99.2708 0.549479 99.349 0.536458 99.375 0.484375C99.401 0.40625 99.4531 0.341146 99.5312 0.289062C99.6354 0.315104 99.8047 0.341146 100.039 0.367188C100.273 0.367188 100.521 0.367188 100.781 0.367188C101.068 0.341146 101.328 0.328125 101.562 0.328125C101.797 0.302083 101.953 0.263021 102.031 0.210938C102.24 0.106771 102.396 0.09375 102.5 0.171875C102.63 0.25 102.721 0.289062 102.773 0.289062C102.904 0.289062 103.086 0.289062 103.32 0.289062C103.581 0.263021 103.763 0.223958 103.867 0.171875C104.023 0.223958 104.128 0.263021 104.18 0.289062C104.232 0.289062 104.271 0.289062 104.297 0.289062C104.349 0.289062 104.401 0.276042 104.453 0.25C104.505 0.223958 104.609 0.184896 104.766 0.132812C104.974 0.184896 105.195 0.236979 105.43 0.289062C105.664 0.315104 105.898 0.341146 106.133 0.367188C106.341 0.471354 106.471 0.497396 106.523 0.445312C106.602 0.393229 106.693 0.393229 106.797 0.445312C106.901 0.549479 107.005 0.601562 107.109 0.601562C107.24 0.575521 107.331 0.601562 107.383 0.679688C107.721 0.653646 107.956 0.666667 108.086 0.71875C108.242 0.744792 108.385 0.731771 108.516 0.679688C108.62 0.783854 108.763 0.848958 108.945 0.875C109.128 0.875 109.258 0.953125 109.336 1.10938C109.701 1.23958 109.974 1.33073 110.156 1.38281C110.365 1.4349 110.547 1.5 110.703 1.57812C110.885 1.63021 111.042 1.72135 111.172 1.85156C111.328 1.95573 111.419 2.08594 111.445 2.24219C111.549 2.32031 111.641 2.38542 111.719 2.4375C111.823 2.48958 111.901 2.56771 111.953 2.67188C112.083 2.67188 112.201 2.71094 112.305 2.78906C112.409 2.86719 112.526 2.91927 112.656 2.94531C112.708 3.1276 112.747 3.23177 112.773 3.25781C112.826 3.25781 112.839 3.29688 112.812 3.375C112.865 3.47917 112.93 3.57031 113.008 3.64844C113.112 3.70052 113.177 3.79167 113.203 3.92188C113.385 4.10417 113.568 4.32552 113.75 4.58594C113.958 4.84635 114.102 5.0026 114.18 5.05469C114.232 5.26302 114.323 5.38021 114.453 5.40625C114.505 5.61458 114.583 5.77083 114.688 5.875C114.818 5.97917 114.857 6.16146 114.805 6.42188C114.961 6.63021 115.026 6.78646 115 6.89062C115 6.99479 115.052 7.07292 115.156 7.125C115.104 7.35938 115.117 7.59375 115.195 7.82812C115.299 8.03646 115.326 8.28385 115.273 8.57031C115.352 9.01302 115.417 9.3125 115.469 9.46875C115.547 9.625 115.586 9.79427 115.586 9.97656C115.586 10.0807 115.573 10.1589 115.547 10.2109C115.521 10.237 115.534 10.3151 115.586 10.4453ZM113.047 10.3672C112.969 10.2109 112.943 10.0807 112.969 9.97656C113.021 9.84635 113.047 9.70312 113.047 9.54688C113.021 9.3125 113.008 9.18229 113.008 9.15625C113.034 9.10417 113.047 9.05208 113.047 9C113.021 8.84375 112.982 8.70052 112.93 8.57031C112.904 8.41406 112.891 8.27083 112.891 8.14062C112.865 7.93229 112.839 7.78906 112.812 7.71094C112.786 7.60677 112.747 7.5026 112.695 7.39844C112.695 7.32031 112.695 7.22917 112.695 7.125C112.721 7.02083 112.708 6.94271 112.656 6.89062C112.422 6.63021 112.266 6.38281 112.188 6.14844C112.057 6.09635 111.966 6.00521 111.914 5.875C111.862 5.71875 111.784 5.57552 111.68 5.44531C111.497 5.13281 111.328 4.92448 111.172 4.82031C111.016 4.6901 110.898 4.52083 110.82 4.3125C110.638 4.15625 110.482 4.07812 110.352 4.07812C110.221 4.07812 110.169 3.97396 110.195 3.76562C110.143 3.79167 110.026 3.7526 109.844 3.64844C109.688 3.51823 109.596 3.42708 109.57 3.375C109.388 3.32292 109.232 3.28385 109.102 3.25781C108.997 3.23177 108.919 3.16667 108.867 3.0625C108.477 2.93229 108.125 2.88021 107.812 2.90625C107.5 2.90625 107.201 2.86719 106.914 2.78906C106.602 2.71094 106.315 2.67188 106.055 2.67188C105.794 2.59375 105.625 2.56771 105.547 2.59375C105.469 2.59375 105.404 2.58073 105.352 2.55469C105.273 2.55469 105.195 2.52865 105.117 2.47656C105.065 2.42448 105 2.39844 104.922 2.39844C104.87 2.3724 104.805 2.3724 104.727 2.39844C104.648 2.42448 104.583 2.4375 104.531 2.4375C104.245 2.4375 104.049 2.4375 103.945 2.4375C103.841 2.41146 103.737 2.42448 103.633 2.47656C103.555 2.39844 103.438 2.3724 103.281 2.39844C103.151 2.39844 103.034 2.41146 102.93 2.4375C102.721 2.33333 102.539 2.28125 102.383 2.28125C102.227 2.28125 102.083 2.30729 101.953 2.35938C101.823 2.38542 101.693 2.42448 101.562 2.47656C101.432 2.5026 101.289 2.48958 101.133 2.4375C101.081 2.48958 101.029 2.54167 100.977 2.59375C100.924 2.61979 100.872 2.64583 100.82 2.67188C100.69 2.56771 100.534 2.54167 100.352 2.59375C100.169 2.61979 100 2.58073 99.8438 2.47656C99.7396 2.5026 99.6094 2.54167 99.4531 2.59375C99.3229 2.61979 99.2188 2.58073 99.1406 2.47656C99.0365 2.55469 98.9453 2.59375 98.8672 2.59375C98.7891 2.59375 98.6849 2.58073 98.5547 2.55469C98.5026 2.60677 98.3464 2.65885 98.0859 2.71094C97.8255 2.76302 97.6693 2.78906 97.6172 2.78906C97.487 2.8151 97.3568 2.80208 97.2266 2.75C97.0964 2.69792 96.9792 2.73698 96.875 2.86719C96.901 2.94531 96.9141 3.03646 96.9141 3.14062C96.9401 3.24479 96.9792 3.33594 97.0312 3.41406C96.9271 3.57031 96.862 3.6875 96.8359 3.76562C96.8359 4 96.8359 4.18229 96.8359 4.3125C96.888 4.39062 96.9141 4.46875 96.9141 4.54688C96.9141 4.625 96.9141 4.70312 96.9141 4.78125C96.9661 5.01562 96.9922 5.22396 96.9922 5.40625C97.0182 5.5625 97.0312 5.73177 97.0312 5.91406C97.0052 6.20052 97.0052 6.36979 97.0312 6.42188C97.0573 6.44792 97.0703 6.48698 97.0703 6.53906C97.0964 6.66927 97.0833 6.79948 97.0312 6.92969C97.0052 7.0599 97.0182 7.24219 97.0703 7.47656C97.0703 7.65885 97.0573 7.78906 97.0312 7.86719C97.0312 7.91927 97.0573 7.97135 97.1094 8.02344C97.0312 8.10156 96.9922 8.19271 96.9922 8.29688C97.0182 8.375 97.0312 8.45312 97.0312 8.53125C97.0052 9.02604 97.0573 9.48177 97.1875 9.89844C97.3177 10.3151 97.4479 10.7448 97.5781 11.1875C97.6302 11.3438 97.6172 11.5 97.5391 11.6562C97.487 11.7865 97.474 11.9167 97.5 12.0469C97.6042 12.3333 97.6432 12.5417 97.6172 12.6719C97.6172 12.8021 97.6042 12.9323 97.5781 13.0625C97.6042 13.3229 97.6302 13.5443 97.6562 13.7266C97.6823 13.8828 97.6823 14.026 97.6562 14.1562C97.526 14.3385 97.474 14.5729 97.5 14.8594C97.526 15.1458 97.526 15.4062 97.5 15.6406C97.474 15.7708 97.4219 15.901 97.3438 16.0312C97.2917 16.1354 97.2786 16.2656 97.3047 16.4219C97.4349 16.8906 97.513 17.138 97.5391 17.1641C97.6432 17.1901 97.7344 17.2292 97.8125 17.2812C97.9167 17.3333 98.0208 17.3724 98.125 17.3984C98.2031 17.3984 98.2682 17.3854 98.3203 17.3594C98.3984 17.3073 98.4766 17.2812 98.5547 17.2812C98.6328 17.2812 98.7109 17.3073 98.7891 17.3594C98.8672 17.4115 98.9453 17.4505 99.0234 17.4766C99.0495 17.4766 99.1406 17.4896 99.2969 17.5156C99.4531 17.5156 99.6224 17.5286 99.8047 17.5547C100.013 17.5547 100.195 17.5547 100.352 17.5547C100.508 17.5547 100.599 17.5547 100.625 17.5547C100.755 17.4766 100.951 17.4375 101.211 17.4375C101.471 17.4115 101.667 17.4115 101.797 17.4375C101.875 17.4375 101.953 17.4245 102.031 17.3984C102.135 17.3724 102.227 17.3724 102.305 17.3984C102.617 17.4505 102.799 17.4635 102.852 17.4375C102.93 17.3854 103.021 17.3333 103.125 17.2812C103.307 17.3073 103.594 17.3203 103.984 17.3203C104.401 17.2943 104.661 17.2422 104.766 17.1641C104.974 17.138 105.104 17.112 105.156 17.0859C105.208 17.0339 105.26 16.9948 105.312 16.9688C105.443 16.9167 105.573 16.8906 105.703 16.8906C105.833 16.8906 105.964 16.8906 106.094 16.8906C106.276 16.7865 106.367 16.7083 106.367 16.6562C106.367 16.5781 106.393 16.5521 106.445 16.5781C106.68 16.5521 106.914 16.526 107.148 16.5C107.383 16.4479 107.617 16.4089 107.852 16.3828C108.008 16.2266 108.177 16.1224 108.359 16.0703C108.542 15.9922 108.737 15.9271 108.945 15.875C109.18 15.7708 109.323 15.7057 109.375 15.6797C109.427 15.6276 109.492 15.6146 109.57 15.6406C109.805 15.4844 110.026 15.3542 110.234 15.25C110.443 15.1458 110.573 15.0286 110.625 14.8984C110.885 14.7161 111.029 14.5859 111.055 14.5078C111.081 14.4297 111.107 14.3385 111.133 14.2344C111.393 14.1042 111.536 13.987 111.562 13.8828C111.615 13.7786 111.706 13.7135 111.836 13.6875C111.784 13.5573 111.797 13.4792 111.875 13.4531C111.953 13.401 111.979 13.3099 111.953 13.1797C112.031 13.1797 112.083 13.1536 112.109 13.1016C112.161 13.0234 112.214 12.9583 112.266 12.9062C112.37 12.6979 112.448 12.5417 112.5 12.4375C112.552 12.3073 112.591 12.2031 112.617 12.125C112.695 11.8906 112.708 11.7474 112.656 11.6953C112.682 11.5911 112.695 11.487 112.695 11.3828C112.721 11.2786 112.76 11.1745 112.812 11.0703C112.917 10.8099 112.969 10.6406 112.969 10.5625C112.969 10.4844 112.995 10.4193 113.047 10.3672ZM132.539 21.7734C132.487 21.9036 132.474 22.0469 132.5 22.2031C132.526 22.3333 132.526 22.4635 132.5 22.5938C132.448 22.724 132.37 22.8411 132.266 22.9453C132.188 23.0234 132.174 23.1406 132.227 23.2969C132.174 23.349 132.096 23.4271 131.992 23.5312C131.888 23.6354 131.784 23.7526 131.68 23.8828C131.576 23.987 131.484 24.0911 131.406 24.1953C131.328 24.2995 131.289 24.3646 131.289 24.3906C131.107 24.4427 130.951 24.5339 130.82 24.6641C130.69 24.7682 130.56 24.8854 130.43 25.0156C130.378 25.0417 130.312 25.0677 130.234 25.0938C130.156 25.0938 130.104 25.1328 130.078 25.2109C129.948 25.2109 129.844 25.25 129.766 25.3281C129.714 25.4062 129.635 25.4714 129.531 25.5234C129.427 25.5755 129.336 25.6146 129.258 25.6406C129.18 25.6667 129.089 25.7188 128.984 25.7969C128.854 25.7708 128.685 25.7839 128.477 25.8359C128.242 25.9401 128.047 26.0443 127.891 26.1484C127.76 26.0964 127.669 26.0964 127.617 26.1484C127.565 26.1745 127.487 26.2135 127.383 26.2656C127.174 26.2656 127.044 26.2786 126.992 26.3047C126.966 26.3307 126.927 26.3568 126.875 26.3828C126.641 26.487 126.484 26.526 126.406 26.5C126.328 26.474 126.276 26.513 126.25 26.6172C126.042 26.6172 125.846 26.6302 125.664 26.6562C125.508 26.6562 125.326 26.6432 125.117 26.6172C124.883 26.5911 124.74 26.5911 124.688 26.6172C124.635 26.6432 124.583 26.6562 124.531 26.6562C124.479 26.6562 124.375 26.6693 124.219 26.6953C124.062 26.6953 123.88 26.6953 123.672 26.6953C123.49 26.6953 123.32 26.6953 123.164 26.6953C123.008 26.6693 122.917 26.6562 122.891 26.6562C122.578 26.526 122.37 26.4609 122.266 26.4609C122.161 26.4349 122.044 26.3958 121.914 26.3438C121.836 26.3177 121.719 26.2656 121.562 26.1875C121.432 26.1094 121.289 26.0312 121.133 25.9531C120.977 25.875 120.82 25.8099 120.664 25.7578C120.534 25.6797 120.443 25.6146 120.391 25.5625C120.078 25.4062 119.883 25.263 119.805 25.1328C119.727 25.0026 119.596 24.9245 119.414 24.8984C119.44 24.8464 119.388 24.7682 119.258 24.6641C119.154 24.5339 119.089 24.4818 119.062 24.5078C119.062 24.3776 118.958 24.1693 118.75 23.8828C118.568 23.5703 118.424 23.375 118.32 23.2969C118.294 23.0885 118.229 22.9323 118.125 22.8281C118.047 22.6979 117.943 22.5677 117.812 22.4375C117.786 22.2031 117.721 21.9818 117.617 21.7734C117.513 21.5391 117.461 21.2917 117.461 21.0312C117.435 20.9271 117.396 20.862 117.344 20.8359C117.318 20.8099 117.292 20.7578 117.266 20.6797C117.188 20.263 117.148 20.0547 117.148 20.0547C117.122 19.7943 117.096 19.6641 117.07 19.6641C117.044 19.638 117.031 19.612 117.031 19.5859C117.005 19.5078 116.992 19.4167 116.992 19.3125C116.992 19.1823 116.992 19.0911 116.992 19.0391C117.044 18.8047 117.057 18.6615 117.031 18.6094C117.031 18.5573 117.031 18.5052 117.031 18.4531C117.057 18.1667 117.044 17.9583 116.992 17.8281C116.94 17.6979 116.966 17.5547 117.07 17.3984C117.018 17.1641 117.005 17.0339 117.031 17.0078C117.057 16.9557 117.07 16.9036 117.07 16.8516C117.07 16.5911 117.083 16.4219 117.109 16.3438C117.161 16.2656 117.214 16.1875 117.266 16.1094C117.292 16.0312 117.331 15.9141 117.383 15.7578C117.435 15.5755 117.474 15.4453 117.5 15.3672C117.552 15.1328 117.591 14.8854 117.617 14.625C117.669 14.3385 117.734 14.0781 117.812 13.8438C117.943 13.5052 118.021 13.3099 118.047 13.2578C118.177 13.0495 118.281 12.8672 118.359 12.7109C118.464 12.5286 118.581 12.3724 118.711 12.2422C118.763 12.1641 118.815 12.099 118.867 12.0469C118.945 11.9948 119.01 11.9297 119.062 11.8516C119.167 11.7214 119.245 11.6042 119.297 11.5C119.375 11.3958 119.492 11.3177 119.648 11.2656C119.727 11.1354 119.779 11.0443 119.805 10.9922C119.831 10.9141 119.922 10.849 120.078 10.7969C120.26 10.6667 120.391 10.5234 120.469 10.3672C120.573 10.2109 120.755 10.1068 121.016 10.0547C121.12 9.92448 121.211 9.82031 121.289 9.74219C121.393 9.63802 121.536 9.57292 121.719 9.54688C122.031 9.39062 122.214 9.26042 122.266 9.15625C122.318 9.05208 122.409 8.94792 122.539 8.84375C122.669 8.84375 122.773 8.81771 122.852 8.76562C122.93 8.71354 123.021 8.67448 123.125 8.64844C123.49 8.59635 123.88 8.58333 124.297 8.60938C124.74 8.60938 125.143 8.60938 125.508 8.60938C125.872 8.6875 126.094 8.71354 126.172 8.6875C126.276 8.63542 126.393 8.63542 126.523 8.6875C126.654 8.73958 126.771 8.79167 126.875 8.84375C126.979 8.89583 127.096 8.94792 127.227 9C127.435 9 127.591 9.03906 127.695 9.11719C127.826 9.16927 128.008 9.16927 128.242 9.11719C128.424 9.2474 128.516 9.32552 128.516 9.35156C128.542 9.3776 128.581 9.40365 128.633 9.42969C128.971 9.53385 129.245 9.66406 129.453 9.82031C129.661 9.95052 129.805 10.0547 129.883 10.1328C129.935 10.3411 129.987 10.4714 130.039 10.5234C130.091 10.5755 130.156 10.6146 130.234 10.6406C130.286 10.7188 130.312 10.8099 130.312 10.9141C130.312 11.0182 130.378 11.0833 130.508 11.1094C130.482 11.2656 130.495 11.3828 130.547 11.4609C130.625 11.5391 130.69 11.6432 130.742 11.7734C130.872 11.9557 130.964 12.099 131.016 12.2031C131.068 12.2812 131.094 12.3854 131.094 12.5156C131.094 12.5677 131.12 12.6328 131.172 12.7109C131.25 12.763 131.302 12.8151 131.328 12.8672C131.406 13.1016 131.432 13.2318 131.406 13.2578C131.38 13.2839 131.38 13.3229 131.406 13.375C131.458 13.4792 131.51 13.5703 131.562 13.6484C131.615 13.7005 131.654 13.7656 131.68 13.8438C131.732 13.974 131.745 14.1042 131.719 14.2344C131.719 14.3646 131.745 14.4948 131.797 14.625C131.849 14.8073 131.901 15.0026 131.953 15.2109C132.005 15.4193 132.07 15.6016 132.148 15.7578C132.148 16.0182 132.161 16.1615 132.188 16.1875C132.214 16.1875 132.227 16.2135 132.227 16.2656C132.201 16.2917 132.161 16.3698 132.109 16.5C132.083 16.6042 132.057 16.6562 132.031 16.6562C132.135 16.8646 132.148 17.0339 132.07 17.1641L131.758 17.5156C131.654 17.5417 131.51 17.6198 131.328 17.75C131.172 17.8542 131.081 17.9583 131.055 18.0625C130.846 18.0885 130.703 18.0885 130.625 18.0625C130.573 18.0365 130.508 18.0365 130.43 18.0625C130.195 18.1667 130.026 18.2188 129.922 18.2188C129.818 18.2188 129.701 18.2448 129.57 18.2969C129.492 18.2448 129.401 18.2188 129.297 18.2188C129.193 18.2188 129.102 18.2057 129.023 18.1797C128.789 18.1797 128.659 18.1667 128.633 18.1406C128.607 18.1146 128.568 18.1016 128.516 18.1016C128.385 18.1016 128.255 18.1146 128.125 18.1406C128.021 18.1406 127.904 18.1406 127.773 18.1406C127.695 18.1406 127.617 18.1406 127.539 18.1406C127.487 18.1146 127.422 18.1016 127.344 18.1016C127.161 18.1276 127.031 18.1276 126.953 18.1016C126.875 18.0755 126.797 18.0625 126.719 18.0625C126.562 18.0625 126.406 18.0755 126.25 18.1016C126.12 18.1276 125.977 18.1406 125.82 18.1406C125.43 18.1406 125.039 18.0885 124.648 17.9844C124.258 17.8542 123.88 17.8021 123.516 17.8281C123.464 17.8281 123.398 17.8411 123.32 17.8672C123.242 17.8672 123.177 17.8672 123.125 17.8672C122.891 17.7891 122.747 17.763 122.695 17.7891C122.643 17.8151 122.591 17.8281 122.539 17.8281C122.409 17.8281 122.279 17.8151 122.148 17.7891C122.018 17.737 121.888 17.724 121.758 17.75C121.68 17.75 121.615 17.763 121.562 17.7891C121.51 17.7891 121.445 17.8021 121.367 17.8281C121.237 17.8542 121.107 17.8542 120.977 17.8281C120.872 17.8021 120.755 17.7891 120.625 17.7891C120.417 17.7891 120.208 17.8151 120 17.8672C119.818 17.8932 119.622 17.8932 119.414 17.8672C119.362 17.9453 119.349 18.0365 119.375 18.1406C119.401 18.2448 119.414 18.3359 119.414 18.4141C119.414 18.7266 119.427 18.9219 119.453 19C119.479 19.0781 119.505 19.1693 119.531 19.2734C119.557 19.3255 119.557 19.4036 119.531 19.5078C119.531 19.5859 119.544 19.651 119.57 19.7031C119.596 19.7812 119.622 19.8594 119.648 19.9375C119.674 19.9896 119.701 20.0417 119.727 20.0938C119.727 20.3542 119.753 20.5885 119.805 20.7969C119.883 20.9792 119.961 21.1745 120.039 21.3828C120.117 21.5911 120.195 21.7865 120.273 21.9688C120.352 22.151 120.417 22.2552 120.469 22.2812C120.521 22.4115 120.547 22.5417 120.547 22.6719C120.547 22.776 120.625 22.8672 120.781 22.9453C120.911 23.0495 120.99 23.1406 121.016 23.2188C121.042 23.2708 121.081 23.3229 121.133 23.375C121.237 23.5312 121.302 23.6094 121.328 23.6094C121.38 23.5833 121.432 23.6484 121.484 23.8047C121.797 23.8828 121.979 23.987 122.031 24.1172C122.109 24.1953 122.161 24.2474 122.188 24.2734C122.24 24.2734 122.292 24.2995 122.344 24.3516C122.63 24.2995 122.812 24.3125 122.891 24.3906C122.969 24.4688 123.112 24.5339 123.32 24.5859C123.424 24.612 123.62 24.625 123.906 24.625C124.193 24.625 124.492 24.625 124.805 24.625C125.117 24.599 125.417 24.5729 125.703 24.5469C125.99 24.4948 126.185 24.4557 126.289 24.4297C126.732 24.2734 127.083 24.1823 127.344 24.1562C127.604 24.1042 127.852 24.013 128.086 23.8828C128.32 23.7526 128.477 23.6875 128.555 23.6875C128.659 23.6875 128.763 23.6615 128.867 23.6094C128.919 23.5573 128.945 23.5182 128.945 23.4922C128.971 23.4661 129.076 23.4401 129.258 23.4141C129.284 23.388 129.349 23.3099 129.453 23.1797C129.557 23.0495 129.661 22.9193 129.766 22.7891C129.896 22.6328 130 22.4896 130.078 22.3594C130.182 22.2292 130.247 22.138 130.273 22.0859C130.352 22.0078 130.43 21.9427 130.508 21.8906C130.612 21.8125 130.664 21.7083 130.664 21.5781C130.872 21.526 131.016 21.3958 131.094 21.1875C131.224 21.1875 131.341 21.1615 131.445 21.1094C131.549 21.0573 131.667 21.0052 131.797 20.9531C131.901 20.9792 131.979 21.0312 132.031 21.1094C132.083 21.1615 132.161 21.2135 132.266 21.2656C132.318 21.3438 132.357 21.4219 132.383 21.5C132.435 21.5781 132.487 21.6693 132.539 21.7734ZM130.039 15.7969C130.065 15.6146 130.039 15.4583 129.961 15.3281C129.883 15.1719 129.831 15.0026 129.805 14.8203C129.701 14.5599 129.609 14.3125 129.531 14.0781C129.453 13.8177 129.388 13.6354 129.336 13.5312C129.284 13.4271 129.219 13.349 129.141 13.2969C129.062 13.2448 129.036 13.1536 129.062 13.0234C129.01 13.0234 128.906 12.8932 128.75 12.6328C128.594 12.3724 128.503 12.2161 128.477 12.1641C128.346 11.9557 128.216 11.8255 128.086 11.7734C128.034 11.7214 127.995 11.6562 127.969 11.5781C127.969 11.5 127.917 11.4479 127.812 11.4219C127.63 11.3438 127.461 11.2786 127.305 11.2266C127.148 11.1745 127.044 11.1094 126.992 11.0312C126.888 11.0312 126.797 11.0182 126.719 10.9922C126.667 10.9661 126.602 10.9661 126.523 10.9922C126.133 10.7839 125.846 10.6797 125.664 10.6797C125.508 10.6797 125.339 10.7057 125.156 10.7578C125.104 10.6797 124.974 10.6406 124.766 10.6406C124.583 10.6146 124.453 10.6276 124.375 10.6797C124.297 10.7057 124.219 10.7188 124.141 10.7188C124.062 10.6927 123.984 10.6797 123.906 10.6797C123.854 10.7578 123.776 10.7969 123.672 10.7969C123.594 10.7969 123.529 10.8229 123.477 10.875C123.346 10.9271 123.229 11.0052 123.125 11.1094C123.047 11.1875 122.93 11.2005 122.773 11.1484C122.669 11.2786 122.604 11.3438 122.578 11.3438C122.552 11.3438 122.487 11.3698 122.383 11.4219C122.253 11.5781 122.174 11.6562 122.148 11.6562C122.122 11.6562 122.083 11.6693 122.031 11.6953C121.953 11.7474 121.888 11.8255 121.836 11.9297C121.81 12.0078 121.771 12.0729 121.719 12.125C121.615 12.2552 121.419 12.4766 121.133 12.7891C120.872 13.0755 120.677 13.2578 120.547 13.3359C120.495 13.4661 120.443 13.5964 120.391 13.7266C120.339 13.8568 120.26 13.987 120.156 14.1172C120.052 14.3255 119.948 14.5859 119.844 14.8984C119.766 15.2109 119.74 15.3932 119.766 15.4453C119.792 15.4714 119.857 15.4974 119.961 15.5234C120.091 15.5234 120.234 15.5365 120.391 15.5625C120.547 15.5625 120.69 15.5625 120.82 15.5625C120.951 15.5625 121.042 15.5625 121.094 15.5625C121.484 15.4583 121.771 15.4193 121.953 15.4453C122.135 15.4453 122.318 15.4193 122.5 15.3672C122.734 15.4714 122.891 15.4974 122.969 15.4453C123.047 15.3932 123.177 15.3672 123.359 15.3672C123.568 15.3672 123.802 15.3932 124.062 15.4453C124.349 15.4974 124.518 15.5365 124.57 15.5625C125.195 15.6927 125.716 15.7969 126.133 15.875C126.549 15.9271 126.953 15.888 127.344 15.7578C127.422 15.8359 127.5 15.862 127.578 15.8359C127.656 15.8099 127.747 15.7969 127.852 15.7969C127.878 15.849 127.943 15.875 128.047 15.875C128.151 15.875 128.268 15.875 128.398 15.875C128.529 15.849 128.646 15.8359 128.75 15.8359C128.88 15.8099 128.971 15.7969 129.023 15.7969C129.18 15.7708 129.349 15.7839 129.531 15.8359C129.714 15.862 129.883 15.849 130.039 15.7969ZM145.312 25.3281C145.365 25.5104 145.365 25.6797 145.312 25.8359C145.286 25.9661 145.273 26.1224 145.273 26.3047C144.961 26.4609 144.727 26.5781 144.57 26.6562C144.44 26.7083 144.31 26.7474 144.18 26.7734C143.893 26.7734 143.711 26.7995 143.633 26.8516C143.555 26.9036 143.451 26.9297 143.32 26.9297C143.242 26.9297 143.164 26.9167 143.086 26.8906C143.034 26.8646 142.969 26.8516 142.891 26.8516C142.604 26.8255 142.448 26.8125 142.422 26.8125C142.292 26.8385 142.161 26.8255 142.031 26.7734C141.901 26.6953 141.784 26.6432 141.68 26.6172C141.628 26.5911 141.562 26.5911 141.484 26.6172C141.406 26.6172 141.341 26.6042 141.289 26.5781L140.977 26.3438C140.924 26.2917 140.859 26.2656 140.781 26.2656C140.729 26.2396 140.69 26.1875 140.664 26.1094C140.586 26.1094 140.469 26.0833 140.312 26.0312C140.156 25.9531 139.987 25.875 139.805 25.7969C139.622 25.7188 139.466 25.6406 139.336 25.5625C139.232 25.4583 139.18 25.3802 139.18 25.3281C139.076 25.3542 138.88 25.263 138.594 25.0547C138.333 24.8464 138.164 24.7031 138.086 24.625C137.982 24.4427 137.93 24.3385 137.93 24.3125C137.93 24.2604 137.891 24.2214 137.812 24.1953C137.839 24.013 137.786 23.8047 137.656 23.5703C137.656 23.2578 137.565 22.8802 137.383 22.4375C137.201 21.9948 137.083 21.6042 137.031 21.2656C137.005 21.1094 136.979 20.9661 136.953 20.8359C136.953 20.6797 136.94 20.5234 136.914 20.3672C136.81 20.237 136.771 20.0417 136.797 19.7812C136.849 19.5208 136.81 19.3255 136.68 19.1953C136.706 18.9349 136.654 18.6484 136.523 18.3359C136.654 18.1016 136.68 17.8802 136.602 17.6719C136.549 17.4375 136.497 17.2161 136.445 17.0078C136.393 16.7734 136.367 16.5391 136.367 16.3047C136.393 16.0443 136.38 15.8099 136.328 15.6016C136.276 15.3932 136.25 15.263 136.25 15.2109C136.276 15.1589 136.289 15.1068 136.289 15.0547C136.289 14.9245 136.276 14.7943 136.25 14.6641C136.224 14.5078 136.211 14.3516 136.211 14.1953C136.237 13.9609 136.237 13.8307 136.211 13.8047C136.211 13.7786 136.211 13.7396 136.211 13.6875C136.315 13.1667 136.367 12.763 136.367 12.4766C136.367 12.1901 136.393 11.9036 136.445 11.6172C136.497 11.2786 136.576 10.9531 136.68 10.6406C136.784 10.3021 136.862 9.96354 136.914 9.625C136.784 9.57292 136.641 9.5599 136.484 9.58594C136.328 9.61198 136.185 9.61198 136.055 9.58594C135.69 9.45573 135.43 9.39062 135.273 9.39062C135.143 9.36458 135.013 9.35156 134.883 9.35156C134.753 9.35156 134.635 9.36458 134.531 9.39062C134.453 9.41667 134.349 9.42969 134.219 9.42969C133.932 9.40365 133.75 9.40365 133.672 9.42969C133.62 9.45573 133.555 9.45573 133.477 9.42969C133.086 9.35156 132.812 9.32552 132.656 9.35156C132.5 9.3776 132.357 9.36458 132.227 9.3125C132.07 9.26042 131.862 9.18229 131.602 9.07812C131.341 8.94792 131.185 8.80469 131.133 8.64844C131.159 8.59635 131.198 8.54427 131.25 8.49219C131.276 8.41406 131.302 8.34896 131.328 8.29688C131.25 8.11458 131.263 7.95833 131.367 7.82812C131.471 7.67188 131.615 7.60677 131.797 7.63281C131.901 7.34635 132.018 7.22917 132.148 7.28125C132.253 7.33333 132.383 7.32031 132.539 7.24219C132.669 7.24219 132.799 7.25521 132.93 7.28125C133.06 7.30729 133.177 7.26823 133.281 7.16406C133.438 7.21615 133.594 7.25521 133.75 7.28125C133.906 7.30729 134.062 7.32031 134.219 7.32031C134.349 7.32031 134.479 7.30729 134.609 7.28125C134.74 7.22917 134.87 7.21615 135 7.24219C135.052 7.24219 135.156 7.24219 135.312 7.24219C135.469 7.21615 135.638 7.21615 135.82 7.24219C136.029 7.24219 136.224 7.25521 136.406 7.28125C136.589 7.28125 136.719 7.26823 136.797 7.24219C136.849 7.11198 136.862 6.99479 136.836 6.89062C136.836 6.76042 136.836 6.63021 136.836 6.5C136.836 6.42188 136.862 6.27865 136.914 6.07031C136.966 5.86198 137.018 5.64062 137.07 5.40625C137.122 5.14583 137.174 4.92448 137.227 4.74219C137.279 4.53385 137.331 4.41667 137.383 4.39062C137.357 4.36458 137.344 4.28646 137.344 4.15625C137.344 4.02604 137.344 3.89583 137.344 3.76562C137.37 3.60938 137.396 3.46615 137.422 3.33594C137.448 3.20573 137.461 3.11458 137.461 3.0625C137.513 2.88021 137.565 2.71094 137.617 2.55469C137.695 2.39844 137.747 2.22917 137.773 2.04688C137.93 1.94271 138.034 1.76042 138.086 1.5C138.216 1.44792 138.307 1.36979 138.359 1.26562C138.411 1.16146 138.477 1.08333 138.555 1.03125C138.737 0.927083 138.854 0.875 138.906 0.875C138.984 0.875 139.023 0.848958 139.023 0.796875C139.128 0.796875 139.271 0.875 139.453 1.03125C139.635 1.16146 139.753 1.26562 139.805 1.34375C139.857 1.42188 139.883 1.51302 139.883 1.61719C139.909 1.69531 139.948 1.76042 140 1.8125C139.974 1.99479 139.961 2.16406 139.961 2.32031C139.961 2.47656 139.948 2.64583 139.922 2.82812C139.844 3.14062 139.805 3.33594 139.805 3.41406C139.831 3.49219 139.831 3.55729 139.805 3.60938C139.727 3.76562 139.688 3.85677 139.688 3.88281C139.714 3.90885 139.727 3.94792 139.727 4C139.674 4.15625 139.635 4.32552 139.609 4.50781C139.609 4.6901 139.583 4.8724 139.531 5.05469C139.505 5.13281 139.466 5.21094 139.414 5.28906C139.388 5.36719 139.362 5.44531 139.336 5.52344C139.336 5.60156 139.31 5.78385 139.258 6.07031C139.232 6.33073 139.219 6.5 139.219 6.57812C139.271 6.86458 139.284 7.04688 139.258 7.125C139.258 7.17708 139.271 7.22917 139.297 7.28125C139.349 7.33333 139.492 7.3724 139.727 7.39844C139.961 7.42448 140.221 7.45052 140.508 7.47656C140.794 7.5026 141.068 7.52865 141.328 7.55469C141.589 7.55469 141.758 7.55469 141.836 7.55469C141.862 7.58073 142.031 7.59375 142.344 7.59375C142.682 7.59375 142.904 7.61979 143.008 7.67188C143.164 7.82812 143.268 7.90625 143.32 7.90625C143.372 7.90625 143.424 7.93229 143.477 7.98438C143.659 8.19271 143.763 8.3099 143.789 8.33594C143.971 8.57031 144.049 8.77865 144.023 8.96094C143.997 9.14323 143.958 9.27344 143.906 9.35156C143.854 9.40365 143.763 9.46875 143.633 9.54688C143.529 9.59896 143.398 9.66406 143.242 9.74219C143.086 9.82031 142.93 9.88542 142.773 9.9375C142.643 9.98958 142.552 10.0156 142.5 10.0156C142.448 10.0156 142.331 10.0156 142.148 10.0156C141.992 9.98958 141.823 9.97656 141.641 9.97656C141.458 9.95052 141.276 9.92448 141.094 9.89844C140.938 9.8724 140.846 9.84635 140.82 9.82031C140.56 9.92448 140.312 9.9375 140.078 9.85938C139.87 9.78125 139.622 9.74219 139.336 9.74219C139.206 10.0547 139.115 10.3021 139.062 10.4844C139.01 10.6667 138.971 10.8099 138.945 10.9141C138.893 11.1484 138.867 11.3307 138.867 11.4609C138.867 11.5911 138.854 11.7344 138.828 11.8906C138.828 12.0208 138.815 12.151 138.789 12.2812C138.763 12.4115 138.737 12.4896 138.711 12.5156C138.711 13.2448 138.724 13.8698 138.75 14.3906C138.776 14.8854 138.802 15.3932 138.828 15.9141C138.958 16.1224 138.997 16.3828 138.945 16.6953L139.062 17.5547C139.089 17.763 139.115 17.9453 139.141 18.1016C139.167 18.2318 139.18 18.349 139.18 18.4531C139.154 18.6094 139.154 18.7135 139.18 18.7656C139.206 18.7917 139.219 18.8307 139.219 18.8828C139.219 18.9349 139.206 19 139.18 19.0781C139.18 19.1302 139.193 19.1953 139.219 19.2734C139.245 19.3516 139.271 19.4297 139.297 19.5078C139.323 19.5859 139.336 19.6771 139.336 19.7812C139.362 19.8594 139.375 19.9505 139.375 20.0547C139.375 20.1328 139.388 20.224 139.414 20.3281C139.44 20.4583 139.479 20.5755 139.531 20.6797C139.583 20.7578 139.635 20.849 139.688 20.9531L139.766 21.3438C139.818 21.526 139.857 21.7083 139.883 21.8906C139.909 22.0469 139.961 22.2031 140.039 22.3594C139.987 22.3594 140.013 22.4766 140.117 22.7109C140.221 22.9193 140.286 23.0495 140.312 23.1016C140.443 23.1797 140.573 23.2578 140.703 23.3359C140.833 23.4141 140.938 23.5182 141.016 23.6484C141.354 23.8307 141.602 23.9479 141.758 24C141.94 24.0521 142.096 24.1042 142.227 24.1562C142.357 24.2083 142.461 24.2734 142.539 24.3516C142.643 24.4036 142.76 24.4557 142.891 24.5078C143.099 24.5599 143.398 24.612 143.789 24.6641C144.206 24.6901 144.531 24.7292 144.766 24.7812C145.052 25.0417 145.234 25.224 145.312 25.3281Z" fill="white"/>
</svg>
